<?xml version="1.0" encoding="UTF-8"?>
<!DOCTYPE svg PUBLIC "-//W3C//DTD SVG 1.0//EN" "http://www.w3.org/TR/2001/REC-SVG-20010904/DTD/svg10.dtd">
<!-- Creator: CorelDRAW 2018 (64-Bit) -->
<svg xmlns="http://www.w3.org/2000/svg" xml:space="preserve" width="1.98618in" height="2.09713in" version="1.0" style="shape-rendering:geometricPrecision; text-rendering:geometricPrecision; image-rendering:optimizeQuality; fill-rule:evenodd; clip-rule:evenodd"
viewBox="0 0 48623 51339"
 xmlns:xlink="http://www.w3.org/1999/xlink">
 <defs>
  <style type="text/css">
   <![CDATA[
    .fil5 {fill:#2E4F54}
    .fil1 {fill:#2F2F2E}
    .fil8 {fill:#35E0F7}
    .fil3 {fill:#5C1720}
    .fil11 {fill:#746830}
    .fil2 {fill:#7CC0C8}
    .fil9 {fill:#A4E1E4}
    .fil6 {fill:#B7B4AB}
    .fil15 {fill:#CEF1F1}
    .fil4 {fill:#D26F70}
    .fil7 {fill:#D9D7D0}
    .fil0 {fill:#DA4E54}
    .fil12 {fill:#EAC100}
    .fil13 {fill:#F5E642}
    .fil14 {fill:#FD0B07}
    .fil10 {fill:#FFFFFC}
   ]]>
  </style>
 </defs>
 <g id="PowerClip_x0020_Contents">
  <metadata id="CorelCorpID_0Corel-Layer"/>
  <path id="_1" class="fil0" d="M25995 42390c-186,114 -549,110 -774,119l17 71c-87,82 -77,-176 -77,165 2,705 -82,2448 32,3051l453 -18c273,-2 944,-138 1140,-62l26 -173 -1569 122 -6 -3085c293,39 555,-21 827,-59 295,-41 593,10 784,-198 -286,5 -581,127 -854,67l0 0z"/>
  <path class="fil1" d="M5370 25220l1669 929c-54,309 -423,674 -343,932 297,95 1243,-33 1668,12 -130,-266 -1236,18 -1548,-74 -77,-305 -23,-46 21,-165 -27,-101 -42,-72 63,-72 120,-214 275,-442 297,-682 -144,-135 -1432,-853 -1603,-872 -29,-7 -130,-53 -145,-55 -166,-23 -11,-101 -118,29l39 16 0 0z"/>
  <path class="fil2" d="M30055 13362c156,38 545,-37 435,-287 -98,-39 -519,8 -435,287z"/>
  <path class="fil2" d="M34444 22704c173,-43 227,-342 117,-508 -249,5 -229,355 -117,508z"/>
  <path class="fil2" d="M33643 21803c236,76 303,-50 276,-287 -260,-75 -351,16 -276,287z"/>
  <path class="fil3" d="M29008 6304c-87,160 -1742,1824 -1937,1970 -292,-234 -351,-592 -716,-655 -145,238 -333,1020 -388,1341l36 63 93 -3 267 -1089c-29,-165 -90,-186 41,-106 10,-13 22,-60 28,-40 3,12 25,-3 29,0 7,5 20,27 30,40 113,-53 101,-76 55,46 115,-42 97,-62 55,58 116,-46 95,-61 50,59 120,-49 100,-66 53,59 110,-48 74,-49 39,70 117,-44 101,-66 57,55 104,-40 71,-44 40,69 109,-39 92,-59 54,56 100,-34 76,-46 48,61 109,-38 90,-55 52,59l158 -37c-48,-122 -65,-104 52,-54 -44,-124 -64,-106 54,-59 -49,-130 -59,-102 61,-49 -45,-120 -62,-102 52,-55 -52,-125 -62,-98 59,-52 -41,-123 -67,-113 49,-61 -54,-125 -58,-91 63,-48 -40,-116 -61,-101 50,-59 -41,-119 -55,-97 57,-52 -47,-124 -61,-100 58,-56 -33,-104 -42,-78 59,-45 -43,-125 -62,-106 57,-59 -32,-99 -43,-76 54,-49 -40,-124 -60,-106 56,-60 -29,-100 -45,-82 51,-53 -45,-120 -55,-90 63,-54 -19,-95 -40,-82 48,-56 -39,-117 -53,-92 60,-54 -27,-100 -44,-82 52,-55 137,-380 808,-642 911,-1110 -49,79 3,26 -109,62l0 0z"/>
  <path class="fil3" d="M38774 16748c276,21 201,-77 493,-47l471 18c-2,336 -227,542 -239,902 131,78 226,143 378,142 148,-37 140,-85 100,58l215 3 73 32 171 102 145 68 263 118c-47,109 -37,61 80,28 -4,122 97,72 187,66 -123,-111 16,-79 -187,-66 26,-112 30,-70 -80,-28 -38,-135 -138,-117 -263,-118 18,-123 -63,-78 -145,-68 -52,-60 91,-79 -171,-102 8,-94 21,-65 -73,-32l-561 -306c117,-233 332,-705 290,-935 -145,-55 -975,-7 -1148,166l0 0z"/>
  <path class="fil4" d="M30667 4700l-60 49 -60 50 -65 45 -51 59 -56 55 -54 55 -51 60 -57 52 -50 60 -60 50 -52 58 -62 47 -47 64 -62 47 -45 64 -60 52 -51 57 -59 51 -59 51c-75,-3 -56,-22 -54,57l-55 53 -49 64 -59 49 -45 66 -62 47 -48 62c-341,216 -517,-69 -955,-12 -53,-82 24,-29 -77,-84 -54,-29 -104,-35 -160,-48 -840,-193 -1711,-275 -2565,-275 -26,616 -77,2770 25,3265l441 62 61 -8 -36 -63 -424 -103 0 -3068c466,5 948,54 1404,128 283,46 1104,232 1333,194 108,105 588,238 729,193 111,-37 60,17 109,-62l118 -119 48 -62 62 -47 45 -66 59 -49 49 -64 55 -53 54 -57 59 -51 59 -51 51 -57 60 -52 45 -64 62 -47 47 -64 62 -47 52 -58 60 -50 50 -60 57 -52 51 -60 54 -55 56 -55 51 -59 65 -45 60 -50 60 -49 53 -57 170 -23 55 54 58 52 50 59 58 54 50 59 50 62 52 57 50 61 59 50 47 63 62 48 46 64 61 49 48 63 60 50 45 65 45 65c-18,272 -58,235 -246,411l-49 61 -69 40 -43 67 -61 48 -51 62 -57 49 -57 57 -58 47 -55 58 -51 56 -60 53 -46 62 -58 53 -144 182 224 21c-39,109 -48,81 60,48 119,162 2425,1025 3088,1667 -186,491 -1247,1624 -1295,2017 -115,-45 -88,-54 -44,64 -183,74 -88,-37 -118,156 -148,25 -117,20 -106,172 -109,-35 -88,-51 -50,62 -106,-43 -78,-52 -48,64l-174 -10c25,-111 36,-83 -67,-42 -74,-144 -19,-106 -191,-138 -106,-161 -26,-80 -180,-93 -100,-143 -73,-120 -249,-133 -87,-130 -284,-205 -446,-239 123,157 252,222 446,239 101,139 76,120 249,133 101,157 -7,81 180,93 80,150 20,102 191,138 -38,116 -43,82 67,42 -25,85 -33,57 59,51l115 -40c111,45 84,55 48,-64 117,41 96,57 50,-62 171,-92 80,10 106,-172 164,-84 73,9 118,-156 106,32 83,45 44,-64 139,-67 403,-543 534,-733 124,-179 423,-625 542,-732 126,-221 221,-328 354,-513l-85 -224c-258,0 -544,-279 -783,-416 -250,-143 -501,-277 -735,-392 -347,-170 -1328,-716 -1620,-674 28,-114 44,-92 -60,-48 -56,-95 -54,-87 -79,-202 103,31 89,54 58,-53 96,29 73,41 46,-62 104,32 89,55 60,-53 95,28 77,45 51,-56 104,31 85,51 55,-58 92,25 78,47 58,-47 101,29 83,49 57,-57 89,20 75,42 57,-49 94,24 73,40 51,-62 92,21 79,45 61,-48 89,20 64,32 43,-67 95,22 85,51 69,-40 86,17 66,33 49,-61l273 -321 -27 -90 -45 -65 -45 -65 -60 -50 -48 -63 -61 -49 -46 -64 -62 -48 -47 -63 -59 -50 -50 -61 -52 -57 -50 -62 -50 -59 -58 -54 -50 -59 -58 -52 -55 -54 -170 23 -53 57 0 0z"/>
  <path class="fil4" d="M13694 42324c73,275 725,641 987,791 293,167 921,636 1182,612 -33,119 -49,97 61,50 114,168 289,232 474,229 35,90 -32,27 61,128 265,50 2597,1167 4374,1401 560,73 1568,401 1667,67 55,-186 26,-3026 -13,-3173l-791 -109c72,85 -55,25 130,108l624 64 8 3190c-546,-130 -1143,-144 -1701,-277l-2274 -605c-595,-193 -1917,-796 -2086,-794 -68,-164 -303,-231 -474,-229 41,-115 51,-88 -61,-50 -58,-90 29,-7 -103,-110l-424 -231c-329,-177 -1385,-828 -1566,-1028l160 -296 -237 262z"/>
  <path class="fil4" d="M6738 33673c136,-68 99,-76 65,79 210,380 386,852 593,1246 98,187 184,420 301,639 278,522 724,1308 1069,1756 232,301 561,751 760,1092l-152 74c168,-10 167,4 256,-113 -223,-426 -1065,-1479 -1593,-2430l-983 -2001c-173,-404 -185,-571 -360,-687l43 346 0 -1z"/>
  <path class="fil4" d="M5919 29915c190,-33 293,-63 421,-180l-577 144c-96,-722 -276,-1488 -315,-2196 -43,-770 -124,-1715 -77,-2463l-39 -16 -560 -319 469 294c42,332 10,915 13,1267 5,441 69,821 79,1238 9,348 246,1989 346,2258l241 -26 0 0z"/>
  <path class="fil4" d="M40324 32766l269 32c151,130 546,297 785,253 90,216 114,47 342,198 -9,253 -377,1106 -530,1289l98 186c117,-424 623,-1166 516,-1572l-56 -28 -371 -73c-197,-114 -555,-254 -785,-253 -122,-162 -75,-45 -274,-162 16,-224 -70,-72 108,-234l-181 60 77 304 0 0z"/>
  <path class="fil5" d="M27393 42650c138,-124 122,-179 134,-473 -216,-137 -527,-143 -793,-202 15,-237 36,-181 198,-378 308,-374 1486,-1966 1676,-2031 145,156 1066,2712 1046,2915 -236,39 -574,-153 -840,-90 -258,291 -726,4485 -965,5276 -190,39 -1021,-104 -1169,-198l583 -3631c63,-274 207,-951 132,-1189l0 0zm940 -3132c47,130 69,113 -54,62 -25,185 51,104 -114,156 36,128 69,123 -49,68 45,121 67,92 -55,92 -29,117 -87,206 -198,264 -180,266 -924,1274 -1192,1474 -83,225 -212,166 -166,407 247,176 562,-11 609,208l265 2 13 398c-86,66 -34,-18 -87,128l-227 1318c-33,265 -173,1255 -266,1447l-26 173c-32,491 -305,1430 -257,1866l259 128c368,-66 786,201 1172,127l142 -812c109,-423 85,-1180 316,-1487l-1 -173 459 -2798c382,-42 567,112 998,87 13,-275 -293,-719 -323,-1093 -113,-183 -250,-488 -220,-700 -275,-214 -396,-1174 -660,-1550 -283,70 -89,125 -339,206l0 0z"/>
  <path class="fil5" d="M42235 37323c-93,142 -821,534 -990,549 -344,-223 -1849,-4355 -2290,-4766 -410,-64 -526,316 -805,249 -58,-125 122,-2838 192,-3034 172,-63 2395,1525 2444,1675 -158,296 -401,191 -589,392 -182,195 59,491 157,713 325,739 1898,3938 1881,4221l0 0zm-4245 -4397c-6,235 -78,515 25,717l294 -68c179,-162 345,-335 609,-312 263,443 561,1212 782,1707 120,268 664,1568 764,1679l639 1401c285,7 1054,-419 1308,-593 83,-453 -1024,-2134 -1122,-2734l-98 -186c-250,-248 -601,-1425 -867,-1771l-77 -304 181 -60c173,-67 533,-248 647,-391l-223 -231c-125,-1 -122,41 -86,-63 -93,30 -77,55 -74,-40 -240,-76 -552,-366 -716,-519 -323,-70 -1404,-1098 -1758,-1109l-226 2877 0 0z"/>
  <path class="fil5" d="M8788 40122c-109,-151 -271,-979 -235,-1166 216,-205 2460,-601 2926,-708 3178,-736 1681,-397 1920,-1358 269,-43 2631,775 2753,970 -38,163 -1958,2024 -2123,2052 -215,-235 -42,-498 -265,-789 -471,-159 -4500,1140 -4976,999l0 0zm4264 -2402c-303,113 -541,160 -863,212 -277,45 -547,128 -825,193 -425,100 -1324,343 -1734,320 -89,117 -88,104 -256,113 -211,41 -828,165 -971,273 -32,228 154,1270 255,1477 224,53 1777,-352 2168,-416l1527 -349 393 -123c291,-32 297,-142 618,-83 40,-42 39,-101 178,-117 229,-26 88,10 121,63 187,202 120,681 301,927l929 -864 1550 -1470 -88 -192c-432,-30 -2686,-1023 -3124,-1042 -98,382 180,704 103,1067l-281 13 0 0z"/>
  <path class="fil5" d="M12979 11585c677,-278 851,482 843,-768 -5,-785 -49,-4408 35,-4681 197,-74 1014,-85 1193,-3 232,591 -150,4821 85,5365 315,134 500,-53 821,88 32,164 -1336,2593 -1517,2686 -120,-66 -1505,-2501 -1460,-2688l0 0zm727 -2406l-3 408 -26 1787c-271,77 -586,33 -870,11 -206,117 250,738 340,898 175,310 449,642 469,964 321,320 510,1035 833,1296l182 -172c24,-184 1274,-2385 1479,-2669l55 -286 -543 11c-192,0 -240,36 -368,-55 -156,-196 -50,-915 -31,-1213l6 -2101 -28 -2079c-333,-51 -1200,-86 -1497,28l-1 3173 1 0z"/>
  <path class="fil5" d="M37706 16816l-392 48c-181,125 -487,21 -729,187 9,301 1667,2451 1866,2753l154 97 407 -844c333,101 1941,782 2109,949 181,-4 143,-31 262,114 239,13 702,240 929,383 203,56 541,175 657,338 273,-12 478,240 772,236 159,-212 534,-1105 551,-1375 -175,-148 -1706,-834 -1999,-929l-29 -35 -163 -55 -55 -53 -209 -62 -66 -48 -268 -114c-184,-101 -164,-164 -393,-167 -90,6 -191,56 -187,-66 -117,33 -127,82 -80,-28l-263 -118 -145 -68 -171 -102 -73 -32 -215 -3c40,-143 48,-95 -100,-58 0,131 -26,100 100,58 152,219 726,386 1012,513 602,268 2880,1240 3136,1435 -8,200 -302,906 -426,1114 -626,21 -4124,-2002 -4773,-1978 -139,212 -180,588 -371,739 -104,-72 -1800,-2313 -1727,-2539 522,-186 2094,-107 2436,-405 -292,-30 -216,68 -493,47 -398,-64 -634,100 -1068,67l0 0z"/>
  <path class="fil5" d="M30667 4700l-60 49 -60 50 -65 45 -51 59 -56 55 -54 55 -51 60 -57 52 -50 60 -60 50 -52 58 -62 47 -47 64 -62 47 -45 64 -60 52 -51 57 -59 51 -59 51 -54 57 -55 53 -49 64 -59 49 -45 66 -62 47 -48 62 -118 119c-103,468 -774,730 -911,1110 -96,-27 -79,-45 -52,55 -113,-38 -99,-63 -60,54 -88,-26 -67,-39 -48,56 -117,-37 -107,-66 -63,54 -96,-29 -80,-47 -51,53 -117,-46 -96,-64 -56,60 -97,-26 -86,-50 -54,49 -119,-48 -99,-67 -57,59 -101,-32 -91,-59 -59,45 -120,-45 -105,-68 -58,56 -112,-44 -97,-66 -57,52 -111,-42 -90,-57 -50,59 -121,-43 -117,-77 -63,48 -115,-52 -89,-62 -49,61 -121,-46 -111,-73 -59,52 -114,-47 -96,-65 -52,55 -121,-53 -110,-81 -61,49 -118,-47 -99,-65 -54,59 -116,-50 -99,-68 -52,54l-158 37c38,-114 57,-96 -52,-59 28,-107 52,-95 -48,-61 38,-114 55,-95 -54,-56 32,-113 64,-109 -40,-69 44,-121 59,-99 -57,-55 35,-119 71,-118 -39,-70 47,-125 67,-107 -53,-59 46,-120 66,-104 -50,-59 42,-120 60,-100 -55,-58 46,-122 58,-99 -55,-46 -10,-13 -23,-36 -30,-40 -4,-3 -26,12 -29,0 -5,-20 -18,27 -28,40 -131,-81 -71,-59 -41,106 115,0 81,22 41,-106l86 0c-42,111 -51,86 55,46 -44,122 -62,102 55,58 -40,121 -64,109 50,59 -47,119 -64,99 53,59 -43,124 -79,123 39,70 -41,112 -54,88 57,55 -39,118 -72,114 40,69 -36,109 -52,87 54,56 -36,113 -60,100 48,61 -29,106 -49,88 52,59 99,74 -59,51 102,35 206,-21 -28,57 56,-71 114,47 96,65 52,-54 120,51 99,68 54,-59 118,43 110,73 61,-49 120,57 100,72 52,-55 117,45 104,70 59,-52 119,51 94,63 49,-61 117,46 108,75 63,-48 112,50 87,61 50,-59 115,39 105,65 57,-52 108,46 88,63 58,-56 113,43 106,72 59,-45 106,35 86,53 57,-59 109,46 96,67 54,-49 104,28 85,48 56,-60 110,46 93,63 51,-53 100,28 84,51 63,-54 105,41 84,54 48,-56 101,24 88,48 60,-54 100,41 79,55 52,-55l2618 -2592 785 889c-153,446 -3531,3444 -3632,3816 112,275 487,419 533,734l-2850 745c-66,-253 388,-1507 436,-1923l-93 3 -61 8c-80,425 -508,1763 -479,2058 467,72 2356,-649 2981,-722 177,-36 205,-40 330,-168 -112,-156 -206,-243 -331,-376 -91,-97 -329,-301 -239,-391 75,-195 2229,-2391 2474,-2534l144 -182 58 -53 46 -62 60 -53 51 -56 55 -58 58 -47 57 -57 57 -49 51 -62 61 -48 43 -67 69 -40 49 -61c188,-176 228,-140 246,-411l-45 -65 -45 -65 -60 -50 -48 -63 -61 -49 -46 -64 -62 -48 -47 -63 -59 -50 -50 -61 -52 -57 -50 -62 -50 -59 -58 -54 -50 -59 -58 -52 -55 -54 -170 23 -53 57 0 0z"/>
  <path class="fil5" d="M4771 24884l560 319c107,-130 -48,-52 118,-29 15,2 116,48 145,55 -226,-275 -2348,-1306 -2858,-1653 15,-213 384,-960 547,-1122 489,69 4297,2555 4563,2443 211,-201 236,-531 434,-712 186,117 1561,2485 1541,2629 -173,72 -1136,73 -1419,103l-1157 46c-268,10 -253,52 -409,-108 87,24 56,35 63,-72 -105,0 -90,-29 -63,72 -44,119 -99,-141 -21,165 312,92 1419,-193 1548,74l44 -12 1592 -108c109,-359 -1439,-2369 -1590,-3013l-199 -36 -430 823c-235,-50 -2432,-1368 -2520,-1395l-23 -24c-201,-76 -1235,-654 -1331,-779 -242,-9 -398,-238 -692,-275 -163,177 -634,1137 -639,1357l2195 1255 0 1z"/>
  <path class="fil6" d="M21327 5818c-233,-54 -102,-28 -128,42 -149,-30 -144,-27 -312,-6 -16,2 -139,26 -140,26 -175,62 -83,38 -140,94 -210,-52 -226,-21 -432,34 -46,12 -135,29 -169,40 -254,77 -73,-14 -191,100 -648,-26 -4034,1339 -4520,1774 -84,-468 101,-1634 -91,-1944 -167,-138 -503,-87 -761,-87 -126,0 -253,-3 -378,-3 -229,0 -266,-42 -359,119 -146,71 -41,2577 -86,2952l-531 446c-264,404 -1719,1360 -1908,1763 -105,-30 -96,-58 -62,49 -104,-35 -86,-54 -56,56 -97,-32 -82,-52 -55,51 -110,-33 -99,-60 -61,53 -107,-36 -95,-60 -56,51 -112,-41 -99,-66 -59,52 -117,-46 -95,-62 -53,60 -108,-41 -79,-50 -46,66 -102,-36 -78,-48 -48,61 -101,-34 -73,-43 -47,68l-44 62 -47 65 -44 67 -189 193c-97,-21 -83,-43 -53,55l-47 66 -50 57 -50 61 -51 62 -46 60 -55 59c-114,-44 -90,-56 -47,61 -116,-44 -92,-61 -58,63l58 -63 47 -61 55 -59 46 -60 51 -62 50 -61c89,19 70,36 50,-57 96,16 75,33 47,-66 95,29 76,46 53,-55l189 -193 44 -67 47 -65 44 -62c100,21 77,37 47,-68 104,31 83,47 48,-61 112,36 86,49 46,-66 110,38 90,55 53,-60 112,43 98,67 59,-52 107,41 93,63 56,-51 105,37 89,59 61,-53 100,34 85,55 55,-51 104,32 87,52 56,-56 100,34 85,57 62,-49 265,-70 653,-594 897,-788l729 1006c283,22 599,66 870,-11l26 -1787c-196,91 81,1184 -121,1762 -421,23 -585,44 -807,-301 -496,-769 -768,-585 442,-1514 255,-196 109,19 264,-338l224 -16 1 -3173c297,-114 1164,-79 1497,-28l28 2079c62,-6 1926,-903 2216,-1019 1130,-452 1052,-413 2084,-727 254,-77 233,-85 283,-163 222,51 227,30 442,-26 10,-3 167,-46 167,-46 138,-51 116,-20 184,-102 183,34 123,30 306,6 252,-33 187,3 286,-120 226,70 97,40 128,-42 403,125 962,-140 1467,-38 45,739 -2,1856 11,2681 10,621 29,351 -323,572 356,47 542,-168 837,-297l-4 339 22 532c-153,192 -90,1054 -57,1207 152,-218 105,-906 57,-1207 251,-286 -199,-1271 271,-1731 220,-215 853,-793 951,-1029 92,26 75,44 52,-53 296,85 173,278 173,1102 0,1241 -74,8021 47,8171 -15,254 -30,130 56,168l54 255 -54 -255 -56 -168c79,-284 -61,-892 21,-1369l8 -5788c-39,-555 65,-1750 -59,-2188l-207 44 18 29 -52 53 -55 30c-411,408 -163,387 -1040,1016 -355,-433 -703,-1561 -531,-2220 386,-40 1147,-109 1491,-9l65 570c-44,-256 41,-410 -49,-657 -434,-134 -1902,21 -2391,105 -124,21 -245,46 -372,58l-349 79 0 0z"/>
  <path class="fil6" d="M32754 10650c40,109 63,95 -44,64 -45,165 46,72 -118,156 -26,181 65,80 -106,172 46,120 67,103 -50,62 36,119 64,109 -48,64l-115 40c304,258 588,121 859,291 234,-19 459,-31 637,120l265 -24 295 -440c63,-296 342,-433 374,-584 -39,149 -264,352 -463,401l-276 -237c-357,-317 -182,-254 -349,-421 -122,-122 -71,-30 -236,-156 -31,-483 295,-607 453,-973 -120,107 -418,553 -542,732 -132,190 -395,666 -534,733l0 0z"/>
  <path class="fil6" d="M5931 20347l4 179c-122,109 -157,354 -152,499 -10,13 -28,13 -30,39 -2,26 -20,31 -22,44 -18,144 -18,35 6,177 -157,268 -114,393 -143,700 126,-159 175,-498 143,-700 112,-136 98,40 46,-260 152,-106 135,-254 152,-499 390,-188 2211,864 2833,846 -52,112 -58,84 55,50l-7 249c-129,124 -106,172 -118,389 146,-159 150,-167 118,-389l42 -276 -35 27c48,-126 62,-105 -55,-50 -5,-210 -348,-173 -793,-416 -387,-211 -1018,-803 -1381,-1135 -388,-355 -196,-401 -140,-893l269 -11c-195,-138 -97,30 -226,-177 -188,113 -263,531 -340,766 -63,193 -201,652 -226,841l0 1z"/>
  <path class="fil6" d="M23495 45324c21,148 83,394 -57,423 98,142 -117,87 187,147 456,-1 1720,132 2021,-115l-453 18c-115,-602 -31,-2346 -32,-3051 0,-341 -10,-84 77,-165l-17 -71 -133 27 -16 3100c-476,63 -714,18 -921,-393l-449 -966 -111 265c-32,168 11,610 -98,781l0 0z"/>
  <path class="fil6" d="M12820 40709c37,119 72,116 -40,71 33,112 50,82 -64,82 -104,232 -270,266 -333,555l955 694 356 213 237 -262c103,-268 575,-853 765,-1132 181,-266 616,-1062 900,-1087l-75 -87 -161 21c-83,413 -1135,1671 -1447,1912 -509,-149 -945,-907 -1093,-979l0 0z"/>
  <path class="fil6" d="M8057 31899c-270,-24 -434,104 -645,85 -3,0 -1174,-522 -1289,-947l259 -132c-594,-119 -362,292 -258,642 85,287 180,611 300,918 147,-8 1505,-497 1633,-566l0 0z"/>
  <path class="fil6" d="M38451 19804l-13 64 52 70 184 5c-10,-90 -31,-68 51,-75 74,-246 156,-495 320,-691l1069 1076c257,-19 184,-92 497,-79 123,-176 285,-111 510,-167 -168,-166 -1776,-847 -2109,-949l-407 844 -154 -97 0 0z"/>
  <path class="fil6" d="M39974 31158c164,153 477,443 716,519 -2,95 -19,70 74,40 -36,104 -39,62 86,63 0,-119 26,-94 -86,-63 35,-114 39,-76 -74,-40 -69,-158 -33,-50 5,-112l550 187c243,34 459,235 639,152 -446,-163 -839,-400 -1175,-747 -333,-344 -716,-395 -723,-1306l537 111 126 -9c-107,-73 -921,-240 -1094,-264 437,431 169,-398 417,833 25,124 23,233 38,362 26,231 85,150 -36,274l0 0z"/>
  <path class="fil6" d="M15256 11370c128,90 176,54 368,55l543 -11 -55 286c150,-136 104,-59 127,-265 -185,-146 -69,-99 -305,-98l-677 34c-17,-315 -85,-837 64,-1079 -23,97 -42,78 51,62l36 70c-26,106 -54,96 43,71l184 255c-17,92 -39,77 47,64l31 80c-29,113 -58,103 46,70 7,204 -1,59 65,96 -32,112 -45,76 75,76 -5,-119 27,-103 -75,-76 8,-180 27,-89 -65,-96 32,-106 56,-90 -46,-70 27,-104 59,-95 -31,-80 22,-91 41,-72 -47,-64 -51,-169 -53,-172 -184,-255 23,-96 46,-79 -43,-71 25,-98 53,-88 -36,-70 12,-89 32,-71 -51,-62l-95 -134c-19,297 -125,1016 31,1213l0 0z"/>
  <path class="fil7" d="M34329 11155c351,-217 807,-1189 1228,-1440 235,144 624,375 620,669l176 -128c341,382 713,692 1086,1054 258,250 807,1062 1081,1116 25,202 399,683 589,731 0,194 18,206 168,274 -36,114 -57,99 51,58 -39,119 -60,103 52,59 -41,120 -64,107 49,59 6,215 211,488 380,559 -33,203 -40,99 60,107 -34,112 -54,95 52,58 -36,117 -59,104 51,60 -40,119 -63,106 50,59 -15,206 -15,220 162,280 -43,125 -69,116 49,62 -51,217 -46,100 57,109 -45,126 -69,114 50,60 -54,224 -45,101 55,110 -48,132 -75,103 55,103 44,-165 94,-163 -55,-103 87,-242 31,-83 -55,-110 51,-124 71,-108 -50,-60 84,-244 28,-82 -57,-109 50,-122 72,-106 -49,-62 20,-203 -15,-192 -162,-280 46,-118 66,-101 -50,-59 41,-114 61,-97 -51,-60 37,-111 55,-93 -52,-58 67,-243 17,-75 -60,-107 81,-202 -3,-195 -110,-328 -158,-195 -49,-197 -269,-231 47,-119 67,-103 -49,-59 42,-117 61,-99 -52,-59 39,-113 58,-95 -51,-58l6 -221 -174 -53c7,-191 -81,-293 -219,-443 -140,-153 -193,-252 -370,-287 54,-236 -298,-433 -428,-610 -606,-823 -1889,-1926 -2709,-2524 -201,-147 -382,-295 -599,-442 -221,-150 -490,-383 -684,-404l10 -1618c-201,-228 -1933,-1027 -2299,-1145l-273 321c17,93 38,78 -49,61 16,91 26,62 -69,40 21,99 46,87 -43,67 18,92 31,68 -61,48 22,101 43,86 -51,62 18,91 32,69 -57,49 26,105 44,85 -57,57 20,95 34,72 -58,47 30,109 48,89 -55,58 26,100 44,83 -51,56 30,108 44,85 -60,53 27,103 51,90 -46,62 30,106 45,83 -58,53 26,115 24,107 79,202 104,-44 88,-65 60,48 292,-42 1273,504 1620,674 234,115 485,248 735,392 240,137 525,415 783,416l85 224c-133,186 -228,292 -354,513 -158,366 -484,489 -453,973 166,127 115,35 236,156 167,167 -8,104 349,421l276 237c199,-49 424,-252 463,-401 -31,151 -310,288 -374,584l0 0z"/>
  <path class="fil7" d="M39803 37317c-295,224 -549,764 -825,1099 -446,540 -2297,2639 -2729,2786 -243,-276 -1672,-2290 -1741,-2565 563,-613 1233,-1119 1569,-1680 -122,64 -71,-16 -124,93l-50 58 -49 65 -49 57 -49 64 -51 55 -54 57c-264,144 -1259,1376 -1497,1447 -116,347 -204,217 50,453l161 -405c370,615 1299,1759 1561,2270l-488 407 -1331 -1969c88,-314 72,-221 -98,-382 -135,187 -401,712 -423,1016l1237 1987c500,-49 719,-561 1381,-897 143,53 144,123 362,182 351,96 1216,385 1445,278 92,-43 2223,-2243 2257,-2644 -334,-28 -179,-28 -410,125l-1070 499c-123,44 -1401,613 -1419,629 225,32 1880,-2088 2252,-2738 43,-75 11,-22 58,-92 155,-230 59,18 124,-255l0 0z"/>
  <path class="fil7" d="M40701 21332l1871 -621c586,882 768,5859 471,7569 -70,402 -107,792 -185,1210 -86,461 -51,1011 -484,904 -158,143 -247,98 212,244 -56,290 -150,224 74,453 456,-727 -407,-258 1271,-909 612,-237 382,-360 508,-961 112,-534 265,-2244 191,-2756 -249,110 -279,388 -416,633 -117,209 -265,397 -383,604 -123,216 -221,445 -344,654 -85,145 -307,523 -341,652l176 -2054c68,-511 17,-1677 11,-2253l-214 -2035c-34,-243 -93,-278 -111,-449l-216 -1407 176 31c-116,-163 -454,-282 -657,-338l171 134 -1781 696 0 -1zm-177 8629l-537 -111c7,911 390,962 723,1306 336,348 729,585 1175,747 -181,83 -397,-119 -639,-152 171,239 641,317 913,453l211 -13 244 -805c65,-313 32,-226 -121,-368 -60,101 -175,389 -237,513l-889 -787c-140,-114 -804,-713 -842,-784l0 0z"/>
  <path class="fil7" d="M7285 16636l2573 -3972c-35,-124 -58,-107 58,-63 -44,-117 -67,-105 47,-61l55 -59 46 -60 51 -62 50 -61 50 -57 47 -66c-30,-99 -44,-76 53,-55l189 -193 44 -67 47 -65 44 -62c-27,-111 -55,-101 47,-68 -31,-109 -54,-96 48,-61 -34,-115 -62,-107 46,-66 -43,-122 -64,-106 53,-60 -40,-117 -53,-92 59,-52 -39,-111 -51,-87 56,-51 -38,-112 -49,-86 61,-53 -28,-102 -43,-82 55,-51 -30,-111 -48,-92 56,-56 -34,-107 -43,-78 62,-49 189,-404 1644,-1360 1908,-1763 -277,98 -917,722 -1120,730 -235,10 -1012,-382 -1402,-398 -287,82 -1613,1767 -1916,2103 -182,202 -207,148 -237,404 419,-6 2145,-899 2521,-1009 -161,111 -388,379 -514,549 -380,513 -1105,1215 -1455,1857 -79,145 -705,963 -887,1328 -106,213 -683,1286 -818,1438l23 229 1 0z"/>
  <path class="fil7" d="M40414 15147l1346 2875 -464 226 9 75 198 81 268 114 66 48 209 62 55 53 99 35 -328 -862c249,-350 486,-666 720,-1012 318,-471 -66,-882 -273,-1303 -137,-278 -1018,-2017 -1356,-2150 -121,229 95,1062 101,1418 2,118 -3,285 7,397 20,222 45,143 75,299 31,158 26,629 22,808 -130,-370 -450,-998 -752,-1166l0 0z"/>
  <path class="fil7" d="M8057 31899c-129,69 -1487,558 -1633,566 -120,-307 -215,-631 -300,-918 -104,-349 -336,-761 258,-642l-259 132c116,425 1287,946 1289,947 211,19 376,-109 645,-85l0 0zm-1682 -1169l-488 295c91,854 298,967 440,1694l232 657c25,75 18,104 60,179 64,114 20,56 119,117 -38,111 -52,79 65,79 34,-154 71,-147 -65,-79l-43 -346c-44,-252 -202,-427 -178,-676 414,-233 1792,-608 2419,-843 645,-242 262,1 590,255 6,-232 -116,-349 -210,-528 -123,-232 -71,-236 -250,-479 -188,-167 -351,-338 -521,-516 -224,-236 -264,-410 -569,-293 -415,160 -1143,392 -1599,483l0 0z"/>
  <path class="fil7" d="M16459 44134c-93,-101 -26,-37 -61,-128 -184,3 -359,-61 -474,-229 -109,47 -93,68 -61,-50 -261,24 -890,-444 -1182,-612 -262,-150 -914,-516 -987,-791l-356 -213c114,204 156,142 245,288 204,334 59,220 43,223 -42,308 -53,1352 28,1626 40,66 2545,1480 3076,1487 -102,-298 -1684,-2108 -1887,-2387 214,103 1282,754 1614,786l0 0z"/>
  <path class="fil7" d="M3908 22548c96,125 1130,704 1331,779l23 24 163 11c47,-279 191,-1138 169,-1377 29,-308 -14,-432 143,-700 -24,-143 -24,-33 -6,-177 2,-13 20,-18 22,-44 2,-26 20,-26 30,-39 -5,-145 31,-390 152,-499l-4 -179c-322,100 -34,-155 -851,169 -229,91 -596,173 -778,315 -67,553 -161,892 -197,1401 -18,245 -8,268 -197,316l0 -1z"/>
  <path class="fil7" d="M5198 33860c259,497 1336,2852 1614,3045 60,-379 12,-831 -34,-1194 -157,-1239 141,-1607 -642,-3043 -292,71 -341,326 -522,556 -146,185 -354,413 -415,637l0 0z"/>
  <path class="fil7" d="M13637 39597c-201,229 -736,864 -817,1112 -98,-27 -69,-36 -40,71 -117,-43 -82,-54 -64,82 114,0 96,30 64,-82 112,45 78,48 40,-71 148,72 584,829 1093,979 312,-241 1364,-1498 1447,-1912l161 -21c-183,-115 -307,-69 -394,-263 -103,44 -84,61 -55,-51 -103,38 -72,51 -72,-69l-107 -28 -929 864c-180,-245 -114,-725 -301,-927l-26 316 0 0z"/>
  <path class="fil7" d="M19134 4804c69,151 -117,91 394,212l2218 554c91,0 965,-121 1037,-140 -3,-311 -333,-572 -502,-839 -147,-232 -73,-310 -367,-334 -525,-44 -2608,436 -2779,547l0 0z"/>
  <path class="fil7" d="M24503 6878l-15 -644 -65 -570c-344,-100 -1105,-31 -1491,9 -172,659 175,1787 531,2220 877,-629 629,-607 1040,-1016l0 0z"/>
  <path class="fil7" d="M24598 42720l-101 17 -478 294c-11,5 -26,11 -38,16 -15,7 -61,25 -76,32l-323 187c-36,300 -132,1833 -87,2059 108,-171 66,-613 98,-781l111 -265 449 966c206,411 445,456 921,393l16 -3100 133 -27c225,-8 588,-5 774,-119 -504,-130 -872,163 -1181,223l-101 12 95 129c16,0 34,0 49,-3 13,-2 28,-9 40,-12 61,-15 40,-56 144,-60l-16 2881c-135,-36 -403,-758 -487,-895 -94,-154 -202,-330 -310,-469 -308,-398 84,-271 -333,-778 39,-97 47,-91 143,-173l122 -94c11,-6 25,-13 35,-19 11,-6 26,-12 38,-17 12,-6 27,-11 39,-16 144,-69 328,-168 468,-280l-141 -101z"/>
  <path class="fil7" d="M25646 45778c-302,247 -1565,114 -2021,115 -304,-60 -89,-5 -187,-147 -223,-29 -424,-24 -609,67l97 84c261,146 1770,-11 2128,56 171,32 268,291 503,611 182,248 319,457 530,686l336 -74c-16,364 -71,642 366,535l-259 -128c-48,-436 225,-1375 257,-1866 -196,-76 -868,60 -1140,62l0 0z"/>
  <path class="fil7" d="M13703 9586l3 -408 -224 16c-155,357 -9,143 -264,338 -1210,930 -939,745 -442,1514 222,345 386,324 807,301 202,-578 -75,-1671 121,-1762l0 0z"/>
  <path class="fil7" d="M28103 47026c559,-224 1309,-198 1370,-511 -82,-58 -935,-229 -1099,-250 -2,-131 6,-234 21,-365 26,-229 46,-117 23,-361 -230,307 -207,1064 -316,1487l0 0z"/>
  <path class="fil8" d="M12979 11585c-45,187 1341,2622 1460,2688 181,-94 1549,-2522 1517,-2686 -321,-141 -506,46 -821,-88 -235,-545 146,-4774 -85,-5365 -179,-83 -996,-72 -1193,3 -83,273 -40,3896 -35,4681 9,1250 -165,490 -843,768l0 0z"/>
  <path class="fil8" d="M39977 17822c-126,42 -100,73 -100,-58 -152,1 -247,-64 -378,-142 12,-360 237,-566 239,-902l-471 -18c-343,298 -1914,219 -2436,405 -73,226 1623,2467 1727,2539 191,-152 232,-527 371,-739 648,-24 4147,1999 4773,1978 124,-208 418,-914 426,-1114 -256,-196 -2535,-1167 -3136,-1435 -286,-128 -861,-294 -1012,-513l0 0z"/>
  <path class="fil8" d="M8553 38956c-36,187 126,1015 235,1166 476,141 4505,-1158 4976,-999 222,290 50,553 265,789 165,-28 2085,-1889 2123,-2052 -122,-196 -2484,-1013 -2753,-970 -240,961 1257,622 -1920,1358 -465,108 -2709,504 -2926,708l0 0z"/>
  <path class="fil8" d="M5594 25229c171,19 1459,737 1603,872 -21,240 -177,467 -297,682 -8,106 24,96 -63,72 156,160 142,118 409,108l1157 -46c283,-30 1246,-31 1419,-103 20,-143 -1355,-2512 -1541,-2629 -199,181 -224,510 -434,712 -265,112 -4074,-2374 -4563,-2443 -164,162 -533,909 -547,1122 509,347 2631,1377 2858,1653l0 0z"/>
  <path class="fil8" d="M28205 7351c27,109 48,96 -52,55 28,103 42,78 -60,54 37,110 57,96 -48,56 21,104 38,82 -63,54 42,116 59,99 -51,53 29,108 47,87 -56,60 42,117 55,95 -54,49 30,112 49,93 -57,59 48,117 54,88 -59,45 30,119 50,101 -58,56 49,117 59,91 -57,52 38,120 62,109 -50,59 45,123 54,93 -63,48 46,124 70,112 -49,61 45,122 58,97 -59,52 48,128 68,112 -52,55 49,122 56,92 -61,49 45,126 65,109 -54,59 45,119 62,101 -52,54 -83,128 151,50 -56,71 -161,16 -3,39 -102,-35 -101,29 -81,47 -52,-59 -107,39 -83,52 -48,-61 -106,31 -90,53 -54,-56 -112,46 -78,49 -40,-69 -111,33 -99,58 -57,-55 -119,53 -82,53 -39,-70 -117,40 -100,60 -53,-59 -114,51 -89,62 -50,-59 -117,44 -99,64 -55,-58 -106,40 -97,65 -55,-46l-86 0c39,127 73,106 -41,106l-267 1089c-48,416 -502,1671 -436,1923l2850 -745c-47,-315 -421,-458 -533,-734 102,-372 3479,-3370 3632,-3816l-785 -889 -2618 2592 0 0z"/>
  <path class="fil8" d="M42235 37323c17,-283 -1556,-3482 -1881,-4221 -97,-221 -339,-517 -157,-713 188,-202 432,-96 589,-392 -49,-150 -2272,-1738 -2444,-1675 -70,196 -250,2909 -192,3034 279,67 395,-313 805,-249 441,410 1945,4543 2290,4766 169,-15 897,-407 990,-549l0 0z"/>
  <path class="fil8" d="M27393 42650c75,238 -69,915 -132,1189l-583 3631c149,95 980,237 1169,198 239,-791 707,-4985 965,-5276 266,-63 604,129 840,90 20,-203 -901,-2759 -1046,-2915 -191,65 -1368,1657 -1676,2031 -162,197 -183,141 -198,378 266,59 578,64 793,202 -11,295 5,350 -134,473l0 0z"/>
  <path class="fil9" d="M31290 18220l3825 -3398 -738 580c-163,-477 -4,-732 -549,-1324 -320,-349 -53,-144 -206,-461 -154,-320 -1181,-896 -1627,-895 -348,257 -1195,2094 -1961,1507 -520,-550 1152,-1163 1434,-1658 -682,-326 -2328,949 -2297,1831 27,760 169,1127 406,1779 175,480 292,299 627,446 71,31 549,505 564,526 568,-1281 2651,-768 3117,-1381l-2594 2450 0 0zm-1235 -4859c-84,-279 337,-327 435,-287 110,250 -279,326 -435,287z"/>
  <path class="fil9" d="M34629 24587c-68,70 64,-66 0,0zm-185 -1883c-112,-153 -132,-503 117,-508 110,166 56,465 -117,508zm-800 -900c-75,-271 16,-362 276,-287 28,237 -39,363 -276,287zm410 -362c-221,-327 -1165,76 -690,1727 596,2071 718,1472 1093,1409l1612 229 669 -670 705 -25c275,-703 -1528,-2607 -2448,-2816 -204,-46 -937,-538 -700,95 211,563 217,252 -25,967 -177,523 -715,239 -632,-103 70,-293 555,-354 415,-812l0 0z"/>
  <path class="fil9" d="M17509 37859c132,-136 796,-1779 977,-2178 285,-630 -90,-320 121,-764 299,-629 1330,-2757 804,-3390l-62 1782c-528,-35 -331,28 -1043,-275 -572,-243 -705,109 -1039,207 -588,173 -385,16 -859,488 -1082,1079 -691,1855 -143,2903 323,619 1303,714 1243,1226l0 0zm703 -4514c114,554 -380,636 -494,945 -99,265 -62,294 -357,397 -144,51 -476,118 -619,-27 -381,-384 348,-699 492,-855 240,-260 653,-491 979,-461l0 0z"/>
  <path class="fil9" d="M24850 14697c-96,-94 -26,-1186 16,-1405 159,-159 152,-111 278,-214 314,-257 -89,-130 287,-273l461 -185c259,-127 628,-77 1145,-152l108 2c10,2 26,8 35,10 153,31 -139,77 168,22 198,-36 102,-97 438,-80 176,-793 318,-833 252,-1836 250,-170 195,8 406,-220 -626,73 -2515,794 -2981,722 -29,-295 399,-1633 479,-2058l-441 -62 -89 -4 -554 -56 -8 5788 0 0z"/>
  <path class="fil9" d="M17890 22149c44,339 34,488 -250,682 -369,252 -198,124 -361,492 -149,335 -1160,488 -1352,264 -257,-298 125,-376 274,-529 234,-240 203,-208 469,-413 213,-164 346,-170 527,-345 239,-232 361,-226 693,-151l0 0zm-1324 3753c589,-456 846,-838 957,-1577 113,-750 533,-1372 366,-2114 -280,-1243 -1051,-2345 -2136,-2953 125,172 417,337 594,471 278,212 328,280 566,531 53,55 215,206 244,255l201 350c80,114 314,663 337,808 -236,147 -615,115 -872,249 -127,66 -208,165 -346,198 -318,76 -181,-84 -440,148 -387,345 -1566,947 -1224,1949 39,114 274,517 453,690 257,248 505,229 743,401 590,425 339,96 864,177 -79,246 -167,229 -308,417l0 0z"/>
  <path class="fil9" d="M17134 11051c407,-507 859,29 359,710 -254,345 38,652 -430,720 -72,-19 -360,-445 -264,-652 99,-213 541,-116 407,-488 -10,-27 -42,-91 -48,-112 -29,-100 -24,-176 -25,-177l0 0zm-1230 102l7 3 66 81 120 111c172,-134 358,-302 549,-309l13 682c-587,407 -381,549 -407,1276l234 201 300 -450c233,232 251,382 364,661 382,-682 543,-426 991,-199 90,-232 111,-417 328,-512 134,53 345,298 400,424 231,-774 786,-617 602,-1345 -78,-309 -38,-363 -70,-647 -357,-349 -637,-420 -901,-932l126 -188c-446,117 -2167,972 -2525,1278l-196 -136 0 0z"/>
  <path class="fil9" d="M25019 16805c363,1080 1105,2087 2197,2426 -351,-319 -567,-54 -530,-712 456,-27 309,130 816,90 205,-16 483,-132 576,-154 302,-71 94,-256 591,-283 241,-13 669,92 794,4 559,-860 -1587,-2099 -2159,-1482 -159,172 -535,1191 -989,986 -744,-336 657,-886 683,-947 -210,-435 -1202,242 -1354,412l-39 708 -586 -1047 0 0z"/>
  <path class="fil9" d="M15027 30891c-82,-394 77,-464 300,-711 419,-463 153,-500 412,-548 236,-44 403,305 82,567 -259,212 -99,329 -258,681 -223,67 -315,75 -537,11l0 0zm-526 1007c764,188 521,-147 1054,-313 368,-115 450,42 686,-11 496,-111 376,-633 1047,-355 192,80 405,-56 453,-246 31,-125 -258,-1180 -315,-1313 -182,-421 -655,-500 -1048,-501 -229,0 -498,19 -682,122 -283,159 -252,278 -408,411 -530,453 -468,181 -673,963 -158,603 -335,456 -112,1242l0 0z"/>
  <path class="fil9" d="M22976 37978c-281,-18 -127,-26 -308,112 -154,118 -568,275 -687,563 -175,425 -312,66 -366,504 -41,325 7,372 -224,609 188,207 93,367 118,647 232,155 607,189 856,26 -58,-242 -115,-150 -145,-404 287,-49 562,-57 836,-99 334,-51 446,-61 674,203 614,-30 479,108 527,-496 176,-32 318,-119 492,-3 200,-332 404,-1177 -107,-1384 -430,-175 -834,-569 -1294,-624 -245,376 -192,301 11,678 -219,471 -667,1286 -1279,1103 -8,-368 107,-430 349,-618 166,-129 235,-269 478,-453l69 -364 0 0z"/>
  <path class="fil9" d="M9987 24532c-192,-741 482,-907 599,-905 280,811 -447,937 -599,905zm184 1534c-4,-95 31,-234 5,-304 -80,-214 -170,-54 -85,-440 536,-358 567,127 746,213 480,232 475,-199 555,-433 384,-207 763,36 965,-274 100,-155 13,-960 -56,-1105 -171,-359 -933,-645 -1327,-550 -364,88 -1044,-153 -1240,339 -90,227 -23,281 -223,468 -171,160 -190,127 -230,403 -26,176 -56,407 56,552 229,296 99,99 239,437 153,367 403,217 596,693l0 0z"/>
  <path class="fil9" d="M11048 31793c-108,-212 -99,-391 -43,-629 839,-186 559,708 43,629zm-106 -645l-369 60c-113,420 27,247 -272,567 -173,187 -231,349 -173,616 20,91 638,896 704,924 469,-750 167,-300 711,-484 487,-165 590,166 1168,-217 152,-101 -57,-57 183,-209 91,-58 283,-101 388,-160 271,-154 268,-434 136,-690 -283,-550 -217,-208 -485,-491 -279,-294 50,-410 -633,-364 -315,21 -585,255 -758,248 -337,-14 -268,-369 -599,200l0 0z"/>
  <path class="fil9" d="M15516 16836c333,322 786,611 1107,919 379,364 630,663 1109,941l-686 -651c29,-7 156,-14 173,-2 149,104 -13,-77 23,56l382 -124c11,-5 24,-13 35,-18 293,-122 466,-195 761,-220 23,-241 15,-503 -56,-725l-636 -862c-191,-179 -270,-151 -432,-281 -139,-112 -230,-310 -401,-372 -283,-103 -261,66 -551,-147 -151,-111 -362,-204 -512,-211 -445,-22 -427,263 -436,308 477,53 876,-95 549,827 -104,293 15,267 -48,564 -197,112 -195,49 -381,-1l0 0z"/>
  <path class="fil9" d="M33011 26563c-198,-174 -485,-296 -585,-499 260,-272 539,-180 577,-633 176,-2096 -1127,-2318 -1313,-2182 -243,308 -190,750 -708,1022 -224,-276 -359,-1403 -307,-1820 90,-722 390,-1028 543,-1555 -289,213 -512,1199 -563,1590 -66,503 43,1410 247,1866 476,1058 1098,1733 2110,2212l0 0z"/>
  <path class="fil9" d="M30906 32263c433,-205 150,27 483,-333 335,-362 110,-147 290,-478 1046,-35 407,515 378,567 -106,195 19,128 -214,269 -147,89 -383,399 -412,547 180,191 257,128 535,138l155 -334c382,-24 241,260 721,83l73 -37c211,-92 232,-51 486,-55 224,-4 224,-33 416,-70 66,-576 -109,-733 -428,-1158 -333,-443 -703,-269 -1125,-196 -1379,237 -1152,359 -1459,846 -193,306 -171,188 -415,354 -13,220 -55,306 94,464 155,165 158,237 234,315 129,133 635,304 642,-160 -278,-212 -617,-81 -454,-763l0 0z"/>
  <path class="fil9" d="M11133 17692c-167,512 18,620 -381,1049 4,210 -51,471 69,640 166,-34 224,-251 346,-392 535,313 650,-74 1007,-496 627,167 471,517 766,406 309,-292 232,-565 50,-891 -156,-278 -122,-94 -177,-442 -110,-703 -807,-852 -1083,-537 -80,91 -117,266 -201,405 -225,375 -40,24 -398,257l0 0z"/>
  <path class="fil9" d="M13404 26806c-110,-415 -156,-341 123,-646 210,-230 55,-321 214,-627l385 168c14,262 -89,458 -208,690 -207,406 -335,414 -515,415l0 0zm-726 479c1024,-232 604,-300 839,-396 0,0 1893,-124 2443,-643l-186 16c-573,-882 -275,-423 -816,-747 -331,-198 -724,-311 -1099,-375 -600,939 -169,42 -777,691 17,509 4,334 -229,684 -204,306 -66,368 -2,652l-172 116 0 0z"/>
  <path class="fil9" d="M38438 19868l52 70 184 5 51 -75c-82,7 -61,-15 -51,75l-184 -5 -52 -70 13 -64c-199,-302 -1856,-2452 -1866,-2753 241,-166 548,-63 729,-187l-836 148 241 515c-122,291 -207,-25 -156,292 39,242 237,107 43,395 -356,531 -196,533 -369,811 -1351,169 -114,-910 -113,-1052 -673,-471 -1132,1246 -1090,1597l521 393 86 -114 -293 -328c340,-332 614,212 870,-67 175,-191 -32,-570 750,-345l-187 513 1156 -423c53,196 362,502 500,670l0 0z"/>
  <path class="fil9" d="M35953 37050l-50 58 -49 65 -49 57 -49 64 -51 55 -54 57 -93 101c-274,7 -1047,-250 -1181,-196 -130,356 102,457 -166,937 -183,326 -222,595 -639,435 -180,-678 197,-372 167,-984 -157,-151 -125,-173 -360,-126 -129,176 -82,279 -143,443 -61,168 -184,204 -273,337 -216,323 89,272 -191,973l206 320 232 -68c-33,-119 -51,-100 58,-54 -51,-125 -57,-94 62,-48 -40,-124 -54,-101 60,-50 -52,-130 -58,-97 64,-46 19,-105 -98,-114 96,-68 26,-82 -104,-92 98,-65 -37,-120 -49,-93 63,-47 75,-141 298,-313 442,-345 239,-72 1233,-1304 1497,-1447l54 -57 51 -55 49 -64 49 -57 49 -65 50 -58c53,-109 1,-29 124,-93l506 -542 -630 636 0 0z"/>
  <path class="fil9" d="M19684 15687c562,-536 448,-135 875,-322 385,-485 15,-784 -384,-982 -343,-170 -807,-454 -1207,-68 457,-268 802,737 147,1080 -186,-39 -328,-68 -334,-250l-351 176c16,371 109,520 381,769 207,-59 143,-169 416,-218 336,-61 171,89 457,-184l0 0z"/>
  <path class="fil9" d="M30687 37638c396,-36 233,-13 555,-134l49 -886c-130,-157 -287,-257 -352,-468 -107,-346 10,-216 -327,-432 -152,-98 -327,-294 -421,-346 -270,-151 -440,-50 -568,-87l-38 -339c13,435 -183,51 124,646 115,222 218,460 317,685 95,215 567,1274 661,1362l0 0z"/>
  <path class="fil9" d="M18802 41502c143,142 885,371 1127,430l-23 -222c490,-414 457,125 1050,-431 -16,-386 -48,-789 -354,-973 -586,-351 -960,125 -954,106l33 4c63,177 171,144 210,232 33,347 23,526 -304,389 -130,-54 -108,-64 -265,-128 -46,-19 -144,-69 -160,-76 -206,251 -124,461 -29,752l-330 -83 0 0z"/>
  <path class="fil9" d="M22983 32622l212 14c-5,435 -84,-138 -240,575l-273 164c-8,265 2,210 191,315 159,88 350,387 590,74 -272,-150 -415,51 -446,-350 20,-23 421,-301 492,-350 334,-229 49,-314 371,-378 102,133 112,373 112,555l-334 57 14 232c310,122 196,-82 433,-237 249,-164 176,-74 337,-359 451,285 46,871 448,892 125,-208 -5,-406 155,-609 62,-78 364,-241 481,-274l205 304 357 -124c-127,-181 -1039,-557 -1294,-598 -320,-52 -1600,-93 -1814,97l0 0z"/>
  <path class="fil9" d="M23211 13196c122,-287 134,-2015 68,-2381 -33,-154 -97,-1015 57,-1207l-22 -532c71,149 -160,335 -235,495 -99,210 -71,387 -246,643 -240,351 -402,1016 -31,1258 -258,184 -330,-94 -418,246 -42,160 18,525 -5,724 -41,353 -563,698 -86,1007 453,-60 153,-590 310,-892 203,-391 315,-242 327,-898 198,-125 254,-12 275,-329 14,-212 -43,-372 37,-564 138,1659 -8,1313 -30,2429l0 0z"/>
  <path class="fil9" d="M19725 36755l141 -50c266,194 -99,-108 303,16 270,83 71,75 238,264l451 -10c110,-146 124,-369 185,-576 57,-195 53,-464 33,-678 -55,-585 -258,-645 -344,-736 -127,-134 -35,-75 -140,-198 -267,200 -262,706 -396,992 -125,265 -338,769 -469,976l0 0z"/>
  <path class="fil9" d="M16355 37682l88 192 -1550 1470 107 28 72 69c103,-35 89,-56 55,51l253 79c113,-210 145,-173 237,-321 178,-286 -53,-328 224,-437l161 484c317,82 649,-370 847,67l-41 77 41 -77 535 -1149 -507 915c123,-285 2,-515 -152,-741 -340,-500 -273,-80 -218,-680l-152 -28 0 0z"/>
  <path class="fil9" d="M37423 27692c147,83 2453,606 2560,588l79 -326 -114 92c-152,-187 -36,-183 -209,-307 -130,-93 -223,-59 -363,-122 -234,-106 -273,-375 -570,-408 -624,-69 -671,504 -1384,484l0 0z"/>
  <path class="fil9" d="M21768 16861c266,-321 90,-361 451,-498 217,-82 556,-41 625,-282 183,-638 -396,-915 -836,-501 -38,72 90,1243 -562,495 -129,402 -172,595 321,786l0 0z"/>
  <path class="fil9" d="M35186 31127c-296,121 -412,-21 -390,374 527,24 711,-109 1046,-482 231,167 351,112 610,32 -72,-230 -26,22 -361,-457 -133,-190 -198,-366 -439,-398 -671,-89 -191,307 -466,930l0 0z"/>
  <path class="fil9" d="M8858 21395l-42 276c32,222 28,230 -118,389l-72 323c145,-143 207,-485 245,-712 171,51 178,-47 475,39 206,59 329,110 545,27 169,-468 -31,-795 -312,-1050 -174,-158 -88,-116 -342,-115 -280,542 -71,566 -412,642l31 181 0 0z"/>
  <path class="fil9" d="M26578 37856c-10,204 -17,173 108,338 329,38 536,-166 727,-423l432 -53c287,-876 -599,-1288 -599,-712 0,230 103,209 97,338 -8,167 -98,124 -200,195 -96,67 -151,171 -227,208 -172,85 -139,-33 -337,108l0 0z"/>
  <path class="fil9" d="M28333 39518c-120,-44 -101,-62 -54,62 -80,46 -62,-86 -114,156 -117,-35 -93,-51 -49,68 -139,-58 -94,-61 -55,92 122,0 100,28 55,-92 117,55 85,60 49,-68 165,-52 89,29 114,-156 124,52 101,68 54,-62 250,-81 56,-137 339,-206 263,377 384,1336 660,1550l-41 -343c191,62 271,82 486,10 90,-347 -260,-811 -551,-952 -488,-236 -343,-232 -473,-307 -244,-141 -423,-21 -420,248l0 0z"/>
  <path class="fil9" d="M26672 41634c268,-200 1011,-1208 1192,-1474 -316,167 -279,382 -569,542 149,-1065 177,-691 552,-955 -19,-240 -156,-261 -399,-238l-148 336c-535,216 -366,186 -385,820 -34,1074 -74,472 -243,969l0 0z"/>
  <path class="fil9" d="M29702 11316c973,113 765,-714 575,-882 -146,-129 -394,-89 -572,-54 -105,454 -84,498 -2,936l0 0z"/>
  <path class="fil9" d="M13427 15143c-138,-222 -735,-458 -738,-821 181,-179 332,-80 498,-207 123,-94 68,-182 287,-362 585,103 613,846 1091,838l67 -221 -182 172c-324,-260 -512,-976 -833,-1296 -220,127 -919,888 -1087,1128l896 768 0 0z"/>
  <path class="fil9" d="M13431 21882c341,86 422,-91 729,-230l100 -433c-188,-137 -323,-237 -529,-266 -351,240 -419,452 -300,929z"/>
  <path class="fil9" d="M24597 36230c96,216 -42,509 900,430l0 -481c-400,-420 -543,-218 -899,51z"/>
  <path class="fil9" d="M33476 19220l0 672c1069,-19 1035,-489 483,-716 -227,-93 -255,-29 -483,44l0 0z"/>
  <path class="fil9" d="M37602 34926c171,-369 633,-1019 707,-1350l-294 68c-103,-202 -31,-482 -25,-717 -106,144 -67,303 -112,504 -47,206 -99,217 -204,369 3,201 40,449 -50,616 -62,114 -105,50 -117,236 -21,346 22,186 95,275l0 0z"/>
  <path class="fil9" d="M26434 38518c-130,41 -414,79 -538,198 -136,130 -239,295 -166,477 157,76 615,52 812,30 33,-271 74,-516 -108,-705l0 0z"/>
  <path class="fil9" d="M26789 35186c-487,-5 -809,125 -661,673l741 -3c80,-260 65,-232 46,-522l-126 -149 0 0z"/>
  <path class="fil9" d="M14767 34086c-522,-284 -880,-25 -596,509 216,406 713,219 596,-509z"/>
  <path class="fil9" d="M11172 27688l1381 -400 -202 54c-284,-277 -56,-166 -470,-296 -265,-83 -247,-247 -491,-254l-4 728 -213 169 0 0z"/>
  <path class="fil9" d="M27307 34452c-185,-423 -788,-1098 -1167,-1319l395 322c0,1 -54,971 624,1215l148 -218z"/>
  <path class="fil9" d="M8715 29862l839 -112c176,409 142,489 665,255 82,-246 -3,-278 145,-522l-1648 379 0 0z"/>
  <path class="fil9" d="M14617 16110l868 718c-179,-248 -268,-138 -212,-497 44,-282 100,-526 45,-807 -466,-73 -352,292 -379,719 -169,17 -226,-9 -323,-133l0 0z"/>
  <path class="fil9" d="M35374 35674c266,69 591,232 586,-235 -5,-398 -265,-415 -591,-334l6 570 0 0z"/>
  <path class="fil9" d="M37869 29426l-1138 -253c107,213 68,76 211,249 75,91 133,191 251,252 438,226 410,-109 676,-247l0 0z"/>
  <path class="fil9" d="M22194 36563c109,158 141,207 274,368 238,-129 262,-40 493,-316 -133,-418 -561,-282 -767,-52l0 0z"/>
  <path class="fil9" d="M23429 42488c461,45 476,53 943,-37 -325,-214 -705,-348 -1130,-334l187 371 0 0z"/>
  <path class="fil9" d="M39165 23662c87,-550 -459,-461 -524,-281 -82,231 167,581 524,281z"/>
  <path class="fil9" d="M29444 11625c43,-167 37,-96 -86,-282 -74,-111 -127,-197 -219,-290 -365,306 -261,771 306,572z"/>
  <polygon class="fil9" points="13420,29569 13415,29982 13848,29990 13856,29556 "/>
  <path class="fil9" d="M15105 36615c184,207 313,281 516,61 -12,-481 -401,-392 -516,-61z"/>
  <path class="fil9" d="M35031 36114l-25 -360 -413 36c-35,327 131,362 438,324z"/>
  <path class="fil10" d="M21737 26033c-606,-3007 3966,-3971 4441,-812 452,3006 -3793,4026 -4441,812zm1933 -3597c-4227,583 -3473,6649 546,6410 4113,-245 3515,-6970 -546,-6410z"/>
  <path class="fil10" d="M6497 18740c438,94 1229,484 1679,665 396,159 510,99 560,573 23,220 91,883 219,1000l748 -2063 -290 -178 -173 -51c-102,18 -80,43 -80,-60l-2254 -757 -248 -40 -200 670c-34,243 -98,18 40,240l0 0z"/>
  <path class="fil10" d="M24497 42736l101 -17 115 -95 101 -12c-277,-178 -845,-29 -1192,-46 -520,-25 8,-118 -1057,-69 -88,275 -68,2850 -25,3269l929 -26c54,-842 -59,-1799 144,-2562 173,-25 773,-326 882,-443l0 0z"/>
  <path class="fil10" d="M33714 39197c35,114 46,87 -63,47 -15,95 92,94 -98,65 -20,104 87,105 -96,68 48,127 56,96 -64,46 51,124 59,96 -60,50 41,119 51,91 -62,48 48,123 61,98 -58,54 -109,321 -746,290 -843,712l53 111 44 62 75 89c84,-10 62,-26 48,68l141 189c81,-14 57,-27 42,64l266 397c86,-11 65,-28 47,64l109 170 32 72c75,-4 56,-21 51,60l5 20c102,0 84,-29 68,73l68 102 38 67 268 397c78,-6 57,-23 48,63l478 626 671 -610 -691 -1116c-196,-385 -502,-715 -646,-1094 91,-367 412,-781 462,-1124 -141,99 -174,134 -333,161l1 0z"/>
  <path class="fil10" d="M34329 11155l-295 440 -265 24 -637 -120 -438 -48c97,139 745,564 956,732 262,208 697,694 961,468l43 -62 536 -792 53 -61 48 -60 52 -58 56 -110 52 -59 244 -348 482 -715c4,-295 -385,-525 -620,-669 -421,251 -877,1223 -1228,1440l0 0z"/>
  <path class="fil10" d="M39876 21585l116 -56 708 -196 1781 -696 -171 -134c-227,-143 -690,-369 -929,-383l-772 53c-966,352 -876,-607 -1572,-884l837 2296 1 0z"/>
  <path class="fil10" d="M24592 6765l207 -44c124,439 21,1633 59,2188l554 56c104,-321 102,-3022 43,-3434l-922 -17 -27 1312 86 -61 0 0z"/>
  <path class="fil10" d="M6340 29735c-127,117 -230,147 -421,180 -144,162 -116,44 -318,188l279 743c245,-11 286,-47 496,-115 456,-91 1185,-323 1599,-483 304,-118 344,56 569,293 170,178 333,349 521,516 120,-181 -178,-863 -262,-1131l-413 29 -155 58c-466,-49 -529,-222 -902,-444 -297,-176 -633,126 -992,167l0 0z"/>
  <path class="fil10" d="M12746 39418c-214,261 -212,51 -454,286 8,84 28,67 -48,63 -68,202 -213,334 -323,510 -208,333 69,17 -304,473 5,21 11,46 17,63 106,279 401,479 678,498l1326 -1714 13 -305 -286 43c-321,-59 -327,51 -618,83l0 0z"/>
  <path class="fil10" d="M40691 31677c114,-36 109,-74 74,40 112,-31 86,-56 86,63l223 231c-114,144 -473,324 -647,391 -178,161 -93,10 -108,234 199,117 151,0 274,162 230,-1 589,139 785,253l371 73 56 28c149,99 -16,91 232,83 169,-268 211,-672 336,-978l-215 -51c-272,-137 -741,-214 -913,-453l-550 -187c-38,63 -74,-46 -5,112l0 0z"/>
  <path class="fil10" d="M15256 11370l677 -34 43 -100c-94,22 -61,34 -66,-81l-7 -3 -7 -17c-120,0 -107,36 -75,-76 -66,-37 -58,107 -65,-96 -104,33 -75,43 -46,-70l-31 -80c-85,13 -64,29 -47,-64l-184 -255c-96,24 -68,35 -43,-71l-36 -70c-93,16 -74,35 -51,-62 -149,242 -80,764 -64,1079l0 0z"/>
  <path class="fil10" d="M39465 30726l466 365c46,-250 -40,-1123 -201,-1275 -65,130 -250,746 -265,910z"/>
  <path class="fil11" d="M36779 3849l67 47 102 58 70 55c2210,1204 5103,4199 6576,6309 1400,2007 3844,6572 4052,8988 440,8 -294,-1609 -308,-1979l-131 -442 -1181 -2828 -46 -50c-2729,-4561 -4610,-7393 -9125,-10295 -8984,-5774 -20417,-4729 -28417,2563 -4056,3697 -5534,6890 -7429,12012l-450 1629c25,562 -387,2298 -453,3046 -101,1139 -117,2283 -98,3428 39,2312 453,3920 821,6112l1314 3860c644,1029 1119,2202 1791,3280 1885,3023 4409,5743 7323,7680 14305,9510 32602,1214 36552,-15167l30 -28 45 -56 366 -1741c-12,-520 247,-2087 316,-2728 97,-903 49,-2087 28,-3011 -17,-744 -452,-4864 -751,-5281l-37 594 140 510c1066,7117 319,13236 -3489,19350 -6878,11047 -20853,14708 -31863,8234 -4606,-2708 -8901,-7513 -10639,-12790 -2249,-4615 -2156,-11979 -777,-16863 1333,-4718 3849,-8766 7359,-12022 7483,-6941 19839,-8355 28243,-2472l0 0z"/>
  <path class="fil11" d="M47154 26354c-283,5281 -1553,9639 -4576,13918 -5814,8228 -15974,11648 -25246,8546 -3109,-1040 -6056,-2814 -8465,-5125 -768,-736 -1441,-1630 -2201,-2301 1074,1649 3246,3477 4815,4626 6292,4609 14891,5317 21967,2067 7496,-3444 12805,-11017 13705,-19508 80,-754 297,-4080 56,-4558 -67,389 -112,1971 -53,2335l0 0z"/>
  <path class="fil11" d="M2616 34253c122,163 810,1974 1011,2384 388,792 759,1506 1240,2246l42 -176c-4225,-6949 -4754,-16242 -1257,-23565 313,-656 683,-1616 1062,-2195 2248,-3436 4537,-6031 8008,-8139 555,-337 1560,-829 1992,-1230 -2230,833 -4821,3032 -6542,4723 -1825,1794 -3497,4351 -4616,6690 -2055,4299 -2840,9854 -2064,14657 275,1706 700,2979 1124,4605l0 0z"/>
  <path class="fil11" d="M31885 2902l34 24c1220,238 4276,2033 5485,2970 216,167 511,483 766,489 21,135 -91,72 333,383 911,668 2355,2354 2730,2547l47 50 54 61c604,894 1249,1709 1839,2626 613,953 1108,1906 1607,2924 915,1867 1913,5005 2095,7078 131,421 -28,584 226,1041 97,-166 57,-29 8,-531 -107,-1096 -418,-2567 -708,-3599 -362,-1289 -744,-2390 -1284,-3609 -766,-1729 -1585,-3113 -2687,-4603 -245,-331 -970,-1084 -1097,-1327l-54 -61 -47 -50c-203,-200 -452,-562 -686,-807 -364,-380 -1990,-2080 -2376,-2123 -36,-207 -175,-234 -510,-477 -187,-136 -370,-285 -562,-426 -364,-268 -829,-575 -1202,-798 -94,-8 -82,22 -67,-62 -2,0 -3206,-1722 -3857,-1870 -227,-51 -222,15 -286,76l200 75 0 0z"/>
  <path class="fil11" d="M17752 2337c246,194 1659,-310 2321,-417 1977,-320 4739,-582 6721,-249 325,55 1094,156 1388,104 26,199 274,141 384,47l-384 -47c-402,-403 -4689,-458 -5432,-363 -1536,198 -2149,179 -3786,590 -397,100 -829,250 -1213,335l0 0z"/>
  <path class="fil12" d="M1954 35206c-146,-793 157,-491 513,-1063l149 110c-423,-1625 -849,-2899 -1124,-4605 -776,-4803 8,-10358 2064,-14657 1118,-2339 2790,-4896 4616,-6690 1720,-1691 4312,-3889 6542,-4723 203,-341 310,-311 665,-437 269,-95 526,-199 789,-295 251,-91 1412,-575 1584,-510 384,-84 816,-235 1213,-335 1636,-411 2250,-392 3786,-590 743,-96 5029,-40 5432,363l384 47c450,-207 971,79 1713,337 288,100 564,193 857,277 646,185 370,251 749,466l34 24 -34 -24 -200 -75c64,-62 59,-128 286,-76 651,148 3856,1870 3857,1870 -15,85 -27,54 67,62l-67 -62 679 -856 272 84 67 47 102 58 70 55 -70 -55 -102 -58 -67 -47c-8404,-5883 -20760,-4469 -28243,2472 -3510,3256 -6026,7304 -7359,12022 -1379,4884 -1472,12248 777,16863l0 0z"/>
  <path class="fil13" d="M35828 4621l67 62c373,223 838,530 1202,798 193,142 375,290 562,426 335,243 474,270 510,477 387,42 2012,1742 2376,2123 235,245 484,608 686,807l47 50 54 61c127,243 852,996 1097,1327 1102,1489 1921,2874 2687,4603 541,1220 922,2321 1284,3609 290,1032 601,2503 708,3599 49,502 89,365 -8,531 -254,-457 -96,-621 -226,-1041 39,228 69,778 143,934 145,306 97,707 130,1044 53,551 47,1762 7,2322 -59,-364 -13,-1946 53,-2335 241,478 24,3804 -56,4558 -900,8491 -6208,16064 -13705,19508 -7076,3251 -15674,2543 -21967,-2067 -1569,-1149 -3741,-2977 -4815,-4626 -378,-605 -1634,-2123 -1757,-2686l-42 176c-481,-740 -852,-1453 -1240,-2246 -201,-410 -889,-2221 -1011,-2384l-149 -110c-356,572 -659,270 -513,1063 1738,5277 6033,10082 10639,12790 11010,6474 24985,2812 31863,-8234 3808,-6115 4555,-12234 3489,-19350l-140 -510 -160 -596c-208,-2416 -2652,-6981 -4052,-8988 -1473,-2111 -4366,-5105 -6576,-6309l-70 -55 -102 -58 -67 -47 -272 -84 -679 856 0 1z"/>
  <path class="fil14" d="M23670 22435c4061,-560 4659,6165 546,6410 -4019,239 -4772,-5827 -546,-6410zm887 -15588c-98,236 -731,815 -951,1029 -470,459 -20,1444 -271,1731 48,301 95,990 -57,1207 66,367 54,2094 -68,2381 35,482 -121,1132 60,1537 379,851 -276,2651 -1027,3521 -1116,1291 -3150,1349 -4512,442 -479,-279 -730,-577 -1109,-941 -320,-308 -773,-596 -1107,-919l-31 -8 -868 -718 -1191 -967 -896 -768c169,-240 867,-1001 1087,-1128 -20,-322 -295,-654 -469,-964 -90,-160 -547,-780 -340,-898l-729 -1006c-244,194 -632,719 -897,788 23,106 38,82 -62,49 31,109 48,88 -56,56 31,105 46,85 -55,51 28,112 44,89 -61,53 36,114 51,92 -56,51 39,119 53,95 -59,52 38,115 57,97 -53,60 41,114 66,102 -46,66 35,107 56,92 -48,61 31,105 54,89 -47,68l-44 62 -47 65 -44 67 -189 193c22,101 42,84 -53,55 28,99 49,81 -47,66 20,93 39,76 -50,57l-50 61 -51 62 -46 60 -55 59 -47 61 -58 63 -2573 3972c-9,320 -551,922 -380,1233l2254 757c99,6 85,-26 80,60l173 51 339 35c413,-784 1188,-2659 1845,-3196 239,44 1880,1532 2160,1806 506,494 1098,903 1584,1378 214,209 33,135 177,320 39,50 171,122 237,177 1085,608 1856,1709 2136,2953 167,743 -253,1364 -366,2114 -112,739 -369,1121 -957,1577l-606 343c-550,520 -2442,643 -2443,643 -235,95 185,164 -839,396l-126 4 -1381 400c-536,74 -2327,720 -2655,632 -88,-309 -133,-911 -108,-1239l-44 12c-425,-46 -1370,83 -1668,-12 -80,-258 289,-623 343,-932l-1669 -929c-46,748 34,1693 77,2463 40,708 219,1474 315,2196l577 -144c358,-41 695,-343 992,-167 374,222 436,395 902,444l155 -58 326 -92 1648 -379c856,-132 1860,-441 2731,-628 777,-167 2036,-468 2794,-463 1626,13 3514,1311 3522,3135 526,633 -505,2761 -804,3390 -211,444 164,134 -121,764 -181,399 -846,2042 -977,2178l-126 357 -535 1149 -41 77 -390 929 -821 -528c-284,25 -719,821 -900,1087 -190,279 -662,864 -765,1132l-160 296c181,200 1237,851 1566,1028l424 231c132,104 45,20 103,110 112,-38 102,-65 61,50 170,-2 405,65 474,229 169,-2 1491,601 2086,794l2274 605c558,133 1155,147 1701,277l-8 -3190 -624 -64c-185,-83 -58,-22 -130,-108 -354,32 -1382,-269 -1768,-389 -242,-59 -984,-288 -1127,-430 -267,-33 -892,-304 -1072,-501 352,-720 659,-1458 996,-2152 316,-650 748,-1442 999,-2094 131,-207 345,-711 469,-976 134,-286 129,-793 396,-992 186,-760 1629,-2112 2392,-2165 214,-190 1493,-148 1814,-97 254,41 1166,416 1294,598l51 10c378,221 981,896 1167,1319 151,156 354,620 435,842 44,120 127,409 171,499 90,186 156,92 284,314 286,497 561,1131 831,1661 253,497 1612,3041 1627,3348 -149,119 -899,407 -1104,446 30,375 337,818 323,1093 -432,25 -616,-130 -998,-87l-459 2798c127,-75 1291,-364 1570,-464 732,-263 2116,-860 2783,-1235 369,-207 975,-485 1280,-760 -59,-265 -199,-310 -278,-551 -79,0 -61,19 -48,-63l-268 -397c-86,11 -64,25 -38,-67 -85,-27 -61,79 -68,-102 -85,10 -56,26 -68,-73l-5 -20c-74,0 -56,19 -51,-60l-32 -72 -109 -170c-84,6 -65,24 -47,-64 -146,-105 -224,-219 -266,-397 -91,15 -71,31 -42,-64 -148,-83 -98,-21 -141,-189 -76,-4 -56,16 -48,-68 -80,-39 -37,85 -75,-89 -75,0 -57,18 -44,-62l-53 -111 -426 99c-129,-204 -216,-458 -318,-677 -235,-503 -838,-1642 -938,-2072 -94,-88 -565,-1147 -661,-1362 -100,-225 -203,-463 -317,-685 -307,-596 -111,-211 -124,-646 -475,-1119 -854,-2046 -627,-3311 433,-2407 2709,-3590 4574,-3133 262,64 452,164 746,222l2452 451 1138 253c380,-46 1242,259 1687,263 173,23 987,191 1094,264 376,-13 1353,291 1723,442 433,106 399,-443 484,-904 77,-418 115,-808 185,-1210 298,-1711 116,-6687 -471,-7569l-1871 621 -708 196 -116 56c-188,260 236,2467 284,3015 97,1119 -7,2244 -97,3354l-79 326c-107,18 -2413,-505 -2560,-588l-4412 -1128c-1011,-478 -1634,-1154 -2110,-2212 -205,-455 -313,-1362 -247,-1866 51,-391 275,-1377 563,-1590 121,-567 4864,-5214 5517,-5532l45 -34 926 1485c434,33 669,-131 1068,-67 173,-173 1003,-221 1148,-166 42,230 -173,702 -290,935l561 306c93,-33 81,-62 73,32 262,24 119,42 171,102 82,-10 163,-55 145,68 125,1 225,-18 263,118 109,-43 106,-84 80,28 203,-13 64,-45 187,66 229,3 209,66 393,167l268 114 66 48 209 62 55 53 163 55 29 35 -29 -35 -64 -20 -99 -35 -55 -53 -209 -62 -66 -48 -268 -114 -198 -81 -9 -75 464 -226 -1346 -2875 34 28c-130,0 -103,28 -55,-103 -99,-9 -109,113 -55,-110 -120,54 -96,66 -50,-60 -103,-9 -108,108 -57,-109 -118,55 -91,64 -49,-62 -177,-60 -177,-74 -162,-280 -112,47 -90,60 -50,-59 -109,44 -86,57 -51,-60 -105,38 -85,54 -52,-58 -100,-7 -93,96 -60,-107 -168,-71 -373,-344 -380,-559 -113,49 -90,61 -49,-59 -112,44 -91,60 -52,-59 -108,41 -87,56 -51,-58 -150,-68 -168,-81 -168,-274 -190,-47 -564,-529 -589,-731 -274,-55 -823,-867 -1081,-1116 -373,-361 -744,-672 -1086,-1054l-176 128 -482 715 -244 348 -52 59 -56 110 -52 58 -48 60 -53 61 -536 792 -43 62c-101,603 959,1008 1211,1570l-708 603 -3825 3398c-89,989 -3084,1476 -4075,1010 -1092,-338 -1833,-1345 -2197,-2426l-79 -315 -54 -255c-85,-39 -71,85 -56,-168 -121,-149 -47,-6930 -47,-8171 0,-823 122,-1017 -173,-1102 23,97 41,79 -52,53l3 0z"/>
  <path class="fil14" d="M21327 5818c-31,82 98,111 -128,42 -99,123 -34,87 -286,120 -182,24 -122,28 -306,-6 -68,82 -46,51 -184,102 0,0 -157,44 -167,46 -215,55 -221,77 -442,26 -50,77 -29,86 -283,163 -1032,314 -953,275 -2084,727 -291,116 -2154,1013 -2216,1019l-6 2101 95 134c83,-8 63,-27 51,62 88,-18 61,-28 36,70 89,-8 66,-24 43,71 131,83 134,86 184,255 87,-8 69,-27 47,64 90,-16 58,-24 31,80 101,-20 78,-36 46,70 92,7 73,-83 65,96 103,-26 70,-42 75,76l7 17 196 136c358,-306 2079,-1161 2525,-1278 584,-319 3266,-1086 3857,-978 352,-221 332,49 323,-572 -13,-825 34,-1942 -11,-2681 -505,-101 -1065,163 -1467,38l0 0z"/>
  <path class="fil14" d="M38310 33576c-75,331 -536,981 -707,1350l-1020 1488 -506 542c-336,561 -1006,1068 -1569,1680 70,275 1498,2289 1741,2565 432,-147 2283,-2246 2729,-2786 276,-335 530,-875 825,-1099 19,-140 148,-281 236,-431 241,-411 199,-305 363,-352l63 116c-101,-112 -644,-1411 -764,-1679 -221,-494 -519,-1264 -782,-1707 -263,-23 -430,150 -609,312l0 0z"/>
  <path class="fil14" d="M6695 33327c175,116 187,283 360,687l983 2001c528,951 1370,2004 1593,2430 410,23 1309,-220 1734,-320 278,-65 548,-148 825,-193 321,-52 559,-99 863,-212 -631,-882 -1381,-1575 -2023,-2587 -302,-477 -1531,-2644 -1504,-3069 -327,-255 55,-497 -590,-255 -627,235 -2005,610 -2419,843 -24,249 133,424 178,676l0 0z"/>
  <path class="fil14" d="M21737 26033c647,3214 4892,2194 4441,-812 -474,-3158 -5046,-2195 -4441,812z"/>
  <path class="fil14" d="M28203 9432l2877 1081c162,34 359,109 446,239 176,13 149,-10 249,133 154,13 74,-69 180,93 173,33 117,-5 191,138 103,-42 92,-69 67,42l174 10c-31,-116 -59,-107 48,-64 -38,-113 -59,-97 50,-62 -10,-152 -42,-146 106,-172 30,-193 -64,-82 118,-156 -44,-118 -71,-108 44,-64 48,-392 1108,-1526 1295,-2017 -663,-642 -2970,-1505 -3088,-1667 -107,33 -99,61 -60,-48l-224 -21c-245,143 -2399,2340 -2474,2534l0 0z"/>
  <path class="fil14" d="M5935 20526c-17,245 0,393 -152,499 52,299 67,124 -46,260 31,202 -17,542 -143,700 22,240 -122,1099 -169,1377l-163 -11 -23 -24 23 24c88,26 2285,1345 2520,1395l430 -823 199 36 215 -1577 72 -323c12,-217 -11,-265 118,-389l7 -249c-113,34 -107,62 -55,-50 -622,18 -2444,-1034 -2833,-846l0 0z"/>
  <path class="fil14" d="M25967 8960c55,-320 243,-1103 388,-1341 365,63 424,421 716,655 195,-146 1850,-1810 1937,-1970 -141,45 -621,-87 -729,-193 -229,37 -1050,-149 -1333,-194 -456,-74 -938,-123 -1404,-128l0 3068 424 103 0 0z"/>
  <path class="fil14" d="M26849 42323c-191,207 -489,157 -784,198 -272,38 -534,97 -827,59l6 3085 1569 -122c92,-192 233,-1182 266,-1447l227 -1318c53,-146 1,-62 87,-128l-13 -398 -265 -2 -266 73 0 0z"/>
  <path class="fil14" d="M41192 34537c152,-182 520,-1036 530,-1289 -228,-151 -252,18 -342,-198 -240,44 -635,-123 -785,-253l-269 -32c266,347 618,1523 867,1771l0 0z"/>
  <path class="fil14" d="M10827 39891c140,198 567,617 783,688 266,-177 384,-588 635,-812 -13,-82 -30,-62 48,-63l61 -163 -1527 349 0 0z"/>
  <path class="fil15" d="M24598 42720l141 101c-140,112 -324,211 -468,280 -12,6 -27,11 -39,16 -12,6 -27,11 -38,17 -11,6 -25,13 -35,19l-122 94c-95,81 -104,76 -143,173 418,507 26,380 333,778 107,139 215,314 310,469 84,137 352,858 487,895l16 -2881c-104,3 -84,45 -144,60 -12,3 -27,10 -40,12 -16,2 -34,2 -49,3l-95 -129 -115 95 0 0zm1397 -329c273,60 568,-62 854,-67l266 -73c-48,-219 -362,-33 -609,-208 -46,-242 83,-183 166,-407 169,-497 209,105 243,-969 20,-634 -150,-604 385,-820l148 -336c242,-23 380,-2 399,238 -375,264 -403,-110 -552,955 290,-160 253,-375 569,-542 111,-59 169,-148 198,-264 -39,-154 -84,-151 55,-92 -44,-119 -68,-103 49,-68 51,-241 34,-109 114,-156 -46,-124 -66,-105 54,-62 -4,-270 176,-389 420,-248 130,75 -15,71 473,307 291,141 641,605 551,952 -215,72 -295,53 -486,-10l41 343c-31,212 106,517 220,700 205,-38 956,-327 1104,-446 -15,-307 -1375,-2852 -1627,-3348 -270,-530 -545,-1164 -831,-1661 -128,-222 -194,-128 -284,-314 -44,-90 -127,-379 -171,-499 -81,-222 -285,-686 -435,-842l-148 218c-678,-244 -624,-1215 -624,-1215l-395 -322 -51 -10 -357 124 -205 -304c-118,33 -420,196 -481,274 -160,203 -30,401 -155,609 -403,-21 3,-607 -448,-892 -161,285 -88,195 -337,359 -236,156 -123,359 -433,237l-14 -232 334 -57c0,-182 -9,-423 -112,-555 -323,64 -37,149 -371,378 -71,49 -472,327 -492,350 31,400 174,200 446,350 -240,313 -432,14 -590,-74 -189,-105 -199,-50 -191,-315l273 -164c155,-713 234,-140 240,-575l-212 -14c-763,53 -2206,1405 -2392,2165 105,124 13,64 140,198 86,91 290,151 344,736 20,214 25,483 -33,678 -61,207 -75,430 -185,576l-451 10c-166,-189 32,-181 -238,-264 -402,-124 -37,178 -303,-16l-141 50c-251,652 -683,1444 -999,2094 -337,694 -644,1432 -996,2152 180,196 804,468 1072,501l330 83c-95,-291 -177,-501 29,-752 16,8 114,57 160,76 158,64 135,73 265,128 326,136 337,-42 304,-389 -39,-88 -147,-54 -210,-232l-33 -4c-6,19 368,-457 954,-106 306,183 338,587 354,973 -593,557 -560,17 -1050,431l23 222c385,120 1414,420 1768,389l791 109c39,147 67,2987 13,3173 -99,333 -1107,6 -1667,-67 -1777,-233 -4109,-1351 -4374,-1401 -332,-32 -1400,-683 -1614,-786 202,278 1784,2089 1887,2387 -530,-7 -3036,-1421 -3076,-1487 -81,-274 -70,-1318 -28,-1626 16,-3 161,110 -43,-223 -89,-146 -131,-84 -245,-288l-955 -694c63,-289 229,-323 333,-555 -18,-135 -54,-125 64,-82 -29,-107 -58,-98 40,-71 82,-248 616,-883 817,-1112l26 -316c-33,-53 107,-89 -121,-63 -139,16 -137,75 -178,117l286 -43 -13 305 -1326 1714c-277,-19 -572,-220 -678,-498 -7,-18 -12,-42 -17,-63 373,-455 96,-139 304,-473 110,-176 255,-309 323,-510 76,4 56,21 48,-63 241,-235 239,-25 454,-286l-393 123 -61 163c-78,1 -61,-19 -48,63 -252,223 -369,635 -635,812 -216,-71 -643,-490 -783,-688 -391,64 -1944,469 -2168,416 -100,-206 -287,-1248 -255,-1477 143,-107 760,-231 971,-273l152 -74c-199,-341 -529,-790 -760,-1092 -345,-448 -791,-1233 -1069,-1756 -117,-219 -203,-452 -301,-639 -207,-394 -383,-866 -593,-1246 -117,0 -103,32 -65,-79 -99,-61 -54,-4 -119,-117 -42,-74 -35,-104 -60,-179l-232 -657c-143,-726 -349,-839 -440,-1694l488 -295c-210,68 -250,104 -496,115l-279 -743c202,-145 174,-27 318,-188l-241 26c-100,-269 -337,-1910 -346,-2258 -11,-418 -74,-798 -79,-1238 -4,-352 28,-935 -13,-1267l-469 -294 -2195 -1255c5,-220 477,-1180 639,-1357 294,37 450,266 692,275 189,-49 179,-71 197,-316 37,-509 130,-847 197,-1401 182,-142 549,-224 778,-315 817,-324 530,-70 851,-169 25,-188 163,-648 226,-841 77,-235 152,-653 340,-766 129,207 31,39 226,177l-269 11c-57,493 -248,539 140,893 363,332 994,924 1381,1135 445,243 788,206 793,416 117,-55 103,-76 55,50l35 -27 -31 -181c341,-76 132,-100 412,-642 254,-1 167,-43 342,115 281,255 481,582 312,1050 -216,83 -339,32 -545,-27 -297,-86 -304,12 -475,-39 -38,227 -101,570 -245,712l-215 1577c151,644 1699,2654 1590,3013l-1592 108c-25,329 20,930 108,1239 328,88 2119,-558 2655,-632l213 -169 4 -728c245,7 226,171 491,254 414,130 186,19 470,296l202 -54 126 -4 172 -116c-65,-284 -202,-346 2,-652 233,-350 246,-176 229,-684 608,-649 177,248 777,-691 375,64 768,177 1099,375 541,324 242,-136 816,747l186 -16 606 -343c142,-188 229,-171 308,-417 -525,-81 -274,248 -864,-177 -239,-172 -486,-154 -743,-401 -179,-173 -414,-576 -453,-690 -342,-1002 837,-1604 1224,-1949 260,-232 122,-72 440,-148 138,-33 219,-132 346,-198 257,-134 636,-102 872,-249 -23,-146 -257,-694 -337,-808l-201 -350c-29,-49 -191,-199 -244,-255 -238,-252 -288,-319 -566,-531 -177,-135 -469,-299 -594,-471 -65,-55 -197,-127 -237,-177 -144,-185 37,-111 -177,-320 -486,-475 -1078,-884 -1584,-1378 -280,-274 -1922,-1762 -2160,-1806 -656,536 -1432,2412 -1845,3196l-339 -35 -173 -51c5,-86 19,-54 -80,-60 0,104 -22,78 80,60l173 51 290 178 -748 2063c-128,-117 -196,-779 -219,-1000 -50,-474 -164,-414 -560,-573 -450,-181 -1241,-571 -1679,-665 -138,-222 -74,3 -40,-240l200 -670 248 40c-171,-312 371,-913 380,-1233l-23 -229c135,-152 712,-1225 818,-1438 182,-366 808,-1184 887,-1328 351,-643 1075,-1345 1455,-1857 126,-169 352,-438 514,-549 -377,110 -2102,1003 -2521,1009 30,-256 55,-202 237,-404 303,-336 1629,-2021 1916,-2103 390,16 1166,408 1402,398 203,-8 843,-633 1120,-730l531 -446c45,-375 -60,-2881 86,-2952 92,-161 129,-119 359,-119 125,0 252,3 378,3 258,0 594,-51 761,87 192,309 8,1475 91,1944 486,-435 3871,-1799 4520,-1774 119,-114 -63,-23 191,-100 34,-11 124,-27 169,-40 206,-55 222,-86 432,-34 56,-56 -36,-32 140,-94 1,0 124,-24 140,-26 168,-21 163,-23 312,6 26,-70 -105,-96 128,-42l349 -79c127,-12 248,-37 372,-58 489,-84 1957,-238 2391,-105 90,247 5,402 49,657l15 644 55 -30 52 -53 -18 -29 -86 61 27 -1312 922 17c59,413 61,3113 -43,3434l89 4c-102,-496 -51,-2650 -25,-3265 855,0 1725,82 2565,275 56,13 106,18 160,48 101,55 25,2 77,84 438,-57 614,228 955,12l48 -62 62 -47 45 -66 59 -49 49 -64 55 -53c-2,-78 -21,-60 54,-57l59 -51 59 -51 51 -57 60 -52 45 -64 62 -47 47 -64 62 -47 52 -58 60 -50 50 -60 57 -52 51 -60 54 -55 56 -55 51 -59 65 -45 60 -50 60 -49 53 -57 170 -23 55 54 58 52 50 59 58 54 50 59 50 62 52 57 50 61 59 50 47 63 62 48 46 64 61 49 48 63 60 50 45 65 45 65 27 90c366,118 2098,917 2299,1145l-10 1618c194,21 463,255 684,404 217,147 398,295 599,442 820,598 2103,1701 2709,2524 130,177 483,374 428,610 177,35 230,135 370,287 138,151 226,252 219,443l174 53 -6 221c110,-37 91,-55 51,58 113,-40 94,-58 52,59 116,-44 96,-60 49,59 221,34 111,36 269,231 107,133 191,126 110,328 77,32 127,-137 60,107 107,-36 89,-53 52,58 111,-38 91,-55 51,60 115,-43 96,-59 50,59 147,88 182,77 162,280 120,-45 99,-61 49,62 85,27 141,-135 57,109 121,-48 101,-64 50,60 86,27 142,-132 55,110 149,-60 98,-62 55,103l-34 -28c303,168 623,796 752,1166 4,-179 9,-650 -22,-808 -30,-156 -55,-77 -75,-299 -10,-112 -5,-279 -7,-397 -6,-357 -222,-1189 -101,-1418 338,133 1219,1872 1356,2150 208,421 591,832 273,1303 -234,346 -471,662 -720,1012l328 862 64 20 29 35c293,95 1825,781 1999,929 -17,271 -393,1164 -551,1375 -294,5 -499,-248 -772,-236l-176 -31 216 1407c18,171 77,206 111,449l214 2035c5,576 56,1741 -11,2253l-176 2054c34,-130 256,-508 341,-652 123,-209 221,-438 344,-654 118,-207 266,-395 383,-604 136,-244 167,-523 416,-633 74,512 -79,2223 -191,2756 -126,601 103,724 -508,961 -1678,651 -815,182 -1271,909 -224,-229 -130,-163 -74,-453 -459,-146 -371,-101 -212,-244 -370,-151 -1347,-456 -1723,-442l-126 9c38,71 703,670 842,784l889 787c61,-125 177,-412 237,-513 153,143 186,56 121,368l-244 805 -211 13 215 51c-124,306 -167,710 -336,978 -248,8 -82,16 -232,-83l-56 -28 56 28c106,407 -399,1148 -516,1572 98,600 1205,2281 1122,2734 -254,173 -1023,600 -1308,593l-639 -1401 -63 -116c-164,47 -122,-59 -363,352 -88,150 -217,291 -236,431 -64,273 31,24 -124,255 -47,70 -15,18 -58,92 -372,650 -2027,2770 -2252,2738 18,-17 1296,-586 1419,-629l1070 -499c231,-153 76,-154 410,-125 -33,401 -2164,2601 -2257,2644 -229,107 -1095,-182 -1445,-278 -218,-59 -219,-130 -362,-182 -662,337 -881,849 -1381,897l-1237 -1987c23,-305 288,-830 423,-1016 170,161 186,68 98,382l1331 1969 488 -407c-263,-511 -1191,-1655 -1561,-2270l-161 405c-254,-235 -166,-105 -50,-453 -144,31 -367,204 -442,345 -112,-46 -100,-73 -63,47 -203,-27 -73,-17 -98,65 -194,-46 -77,-37 -96,68 -122,-51 -115,-84 -64,46 -114,-52 -99,-75 -60,50 -119,-46 -112,-76 -62,48 -110,-46 -91,-65 -58,54l-232 68 -206 -320c279,-700 -25,-650 191,-973 88,-132 211,-169 273,-337 60,-164 13,-267 143,-443 234,-47 203,-25 360,126 31,612 -347,306 -167,984 417,161 456,-108 639,-435 268,-480 36,-581 166,-937 134,-54 907,203 1181,196l93 -101 54 -57 51 -55 49 -64 49 -57 49 -65 50 -58 630 -636 1020 -1488c-73,-88 -117,71 -95,-275 11,-185 55,-121 117,-236 90,-166 52,-415 50,-616 106,-152 158,-163 204,-369 46,-201 7,-360 112,-504l226 -2877c354,11 1435,1039 1758,1109 121,-124 62,-43 36,-274 -15,-129 -13,-239 -38,-362 -248,-1231 20,-402 -417,-833 -444,-3 -1307,-308 -1687,-263 -266,138 -237,474 -676,247 -118,-61 -176,-161 -251,-252 -143,-173 -104,-36 -211,-249l-2452 -451c-294,-58 -485,-158 -746,-222 -1866,-457 -4142,727 -4574,3133 -227,1265 152,2192 627,3311l38 339c128,38 298,-63 568,87 94,52 269,248 421,346 336,216 220,86 327,432 65,211 222,311 352,468l-49 886c-322,121 -158,97 -555,134 100,431 703,1569 938,2072 102,218 189,473 318,677l426 -99 53 111c-13,80 -31,61 44,62 37,175 -5,50 75,89 -8,83 -27,64 48,68 43,168 -7,106 141,189 -29,95 -49,79 42,64 42,179 121,292 266,397 -17,89 -36,70 47,64l109 170 32 72c-5,79 -23,60 51,60 5,-81 25,-64 -51,-60l-32 -72 -109 -170c18,-92 39,-76 -47,-64l-266 -397c15,-90 38,-78 -42,-64l-141 -189c13,-93 36,-77 -48,-68l-75 -89 -44 -62 -53 -111c97,-422 735,-391 843,-712 119,44 106,69 58,-54 113,43 103,71 62,-48 119,46 110,75 60,-50 119,50 112,81 64,-46 183,37 76,36 96,-68 190,28 83,29 98,-65 109,40 99,67 63,-47 159,-27 193,-62 333,-161 -50,343 -371,758 -462,1124 144,380 450,710 646,1094l691 1116 -671 610 -478 -626c9,-85 30,-69 -48,-63l-268 -397 -38 -67 -68 -102c16,-101 34,-73 -68,-73 12,99 -17,83 68,73 7,181 -16,75 68,102 -26,92 -48,77 38,67l268 397c-14,82 -31,62 48,63 79,241 219,286 278,551 -305,275 -912,553 -1280,760 -667,375 -2052,972 -2783,1235 -279,100 -1444,389 -1570,464l1 173c23,244 2,133 -23,361 -15,131 -23,234 -21,365 164,21 1017,192 1099,250 -61,313 -812,286 -1370,511l-142 812c-386,74 -804,-193 -1172,-127 -437,107 -381,-171 -366,-535l-336 74c-211,-229 -349,-439 -530,-686 -235,-320 -331,-579 -503,-611 -358,-67 -1867,90 -2128,-56l-97 -84c186,-91 386,-96 609,-67 141,-29 78,-275 57,-423 -45,-226 51,-1759 87,-2059l323 -187c15,-7 61,-25 76,-32 11,-5 27,-11 38,-16l478 -294c-109,117 -709,418 -882,443 -203,763 -90,1720 -144,2562l-929 26c-43,-419 -63,-2994 25,-3269 1065,-50 536,43 1057,69 347,17 915,-132 1192,46 309,-60 677,-352 1181,-223l-2 2zm-2753 -273c425,-14 805,120 1130,334 -467,90 -482,82 -943,37l-187 -371 0 0zm3192 -3599c182,188 141,434 108,705 -197,22 -654,47 -812,-30 -73,-182 30,-347 166,-477 124,-118 408,-156 538,-198l0 0zm-3527 -177c-243,184 -312,324 -478,453 -242,188 -357,250 -349,618 612,183 1060,-632 1279,-1103 -202,-378 -256,-303 -11,-678 461,55 864,449 1294,624 511,208 307,1052 107,1384 -174,-115 -316,-28 -492,3 -48,604 87,466 -527,496 -228,-264 -340,-254 -674,-203 -274,41 -549,50 -836,99 29,255 86,163 145,404 -249,163 -624,129 -856,-26 -25,-279 70,-439 -118,-647 231,-238 183,-284 224,-609 54,-438 191,-79 366,-504 119,-288 533,-445 687,-563 181,-138 27,-130 308,-112l-69 364 0 0zm4937 -623l-432 53c-191,257 -398,461 -727,423 -125,-166 -118,-135 -108,-338 198,-141 165,-23 337,-108 76,-37 130,-141 227,-208 102,-71 192,-28 200,-195 6,-129 -96,-107 -97,-338 -1,-576 886,-164 599,712l0 0zm-5651 -1155c206,-230 634,-366 767,52 -231,276 -255,187 -493,316 -133,-160 -165,-210 -274,-368l0 0zm2404 -334c357,-270 499,-471 899,-51l0 481c-942,79 -804,-214 -900,-430zm9996 -439l413 -36 25 360c-307,38 -473,3 -438,-324zm-7804 -605l126 149c19,290 34,262 -46,522l-741 3c-148,-549 174,-679 661,-673l0 0zm8585 489l-6 -570c326,-80 586,-63 591,334 6,467 -319,304 -586,235l0 0zm-30176 -1814c61,-224 270,-453 415,-637 181,-229 230,-484 522,-556 783,1437 485,1805 642,3043 46,363 93,815 34,1194 -277,-192 -1355,-2548 -1614,-3045l0 0zm25708 -1598c-163,682 176,551 454,763 -7,464 -513,292 -642,160 -76,-78 -79,-151 -234,-315 -150,-159 -107,-245 -94,-464 244,-166 222,-47 415,-354 306,-486 80,-608 1459,-846 421,-72 792,-247 1125,196 319,425 494,581 428,1158 -192,36 -191,66 -416,70 -253,5 -274,-37 -486,55l-73 37c-480,177 -340,-107 -721,-83l-155 334c-278,-11 -355,52 -535,-138 29,-148 265,-458 412,-547 233,-141 109,-73 214,-269 29,-53 668,-603 -378,-567 -180,331 45,116 -290,478 -333,360 -50,128 -483,333l0 0zm4281 -1135c275,-623 -205,-1019 466,-930 241,32 306,207 439,398 335,479 289,226 361,457 -259,80 -379,135 -610,-32 -334,372 -518,505 -1046,482 -22,-395 94,-253 390,-374l0 0zm4278 -402c15,-163 200,-779 265,-910 162,152 248,1025 201,1275l-466 -365zm-29293 -4660c-193,-476 -443,-326 -596,-693 -141,-337 -11,-141 -239,-437 -112,-145 -82,-375 -56,-552 41,-276 60,-242 230,-403 199,-187 133,-241 223,-468 195,-492 876,-251 1240,-339 394,-95 1156,191 1327,550 69,144 157,950 56,1105 -202,310 -581,66 -965,274 -80,234 -75,665 -555,433 -178,-86 -210,-571 -746,-213 -85,386 6,226 85,440 26,69 -8,209 -5,304l0 0zm3260 -4184c-119,-477 -51,-689 300,-929 206,29 341,129 529,266l-100 433c-306,140 -387,317 -729,230zm-2298 -4190c358,-233 173,118 398,-257 83,-139 121,-313 201,-405 275,-315 973,-166 1083,537 54,348 21,163 177,442 182,326 259,599 -50,891 -294,111 -138,-239 -766,-406 -357,421 -473,809 -1007,496 -122,142 -181,358 -346,392 -120,-169 -65,-431 -69,-640 398,-429 214,-537 381,-1049l0 0zm8001 -12888c171,-110 2254,-590 2779,-547 295,25 221,103 367,334 169,267 500,528 502,839 -72,19 -946,140 -1037,140l-2218 -554c-511,-121 -325,-61 -394,-212l0 0zm-1382 -2467c-172,-65 -1334,419 -1584,510 -264,96 -521,199 -789,295 -354,125 -462,96 -665,437 -432,401 -1437,893 -1992,1230 -3471,2108 -5760,4704 -8008,8139 -379,579 -749,1539 -1062,2195 -3498,7323 -2968,16616 1257,23565 123,562 1379,2080 1757,2686 760,671 1433,1564 2201,2301 2409,2311 5356,4084 8465,5125 9272,3102 19432,-318 25246,-8546 3023,-4279 4293,-8637 4576,-13918 40,-560 46,-1772 -7,-2322 -33,-337 16,-739 -130,-1044 -74,-156 -104,-706 -143,-934 -182,-2073 -1179,-5210 -2095,-7078 -499,-1018 -994,-1971 -1607,-2924 -591,-917 -1235,-1732 -1839,-2626l-54 -61 -47 -50c-375,-193 -1819,-1879 -2730,-2547 -424,-311 -312,-248 -333,-383 -255,-6 -550,-322 -766,-489 -1209,-937 -4265,-2732 -5485,-2970l-34 -24c-379,-215 -103,-280 -749,-466 -294,-84 -570,-177 -857,-277 -742,-259 -1263,-545 -1713,-337 -110,94 -358,153 -384,-47 -294,52 -1063,-50 -1388,-104 -1981,-333 -4743,-71 -6721,249 -662,107 -2075,611 -2321,417l0 0z"/>
  <path class="fil15" d="M39165 23662c-356,299 -606,-51 -524,-281 64,-180 610,-269 524,281zm-1722 449l-705 25 -669 670 -1612 -229c-375,63 -497,662 -1093,-1409 -476,-1651 469,-2054 690,-1727 140,458 -344,519 -415,812 -82,342 455,626 632,103 242,-715 236,-404 25,-967 -237,-633 495,-142 700,-95 919,209 2723,2112 2448,2816l0 0zm-2814 476c64,-66 -68,70 0,0zm-1153 -5367c228,-73 256,-137 483,-44 552,227 586,697 -483,716l0 -672 0 0zm-2258 1676c-153,528 -453,833 -543,1555 -52,417 83,1544 307,1820 519,-272 465,-714 708,-1022 185,-136 1488,87 1313,2182 -38,453 -317,361 -577,633 100,203 387,325 585,499l4412 1128c713,20 760,-553 1384,-484 297,33 336,302 570,408 140,63 233,29 363,122 173,125 58,120 209,307l114 -92c90,-1110 194,-2235 97,-3354 -48,-548 -472,-2755 -284,-3015l116 -56 -116 56 -837 -2296c695,277 606,1236 1572,884l772 -53c-119,-145 -81,-118 -262,-114 -225,56 -387,-9 -510,167 -313,-13 -241,60 -497,79l-1069 -1076c-164,197 -246,445 -320,691l-51 75 -184 -5 -52 -70c-138,-167 -447,-473 -500,-670l-1156 423 187 -513c-782,-225 -576,154 -750,345 -256,280 -530,-265 -870,67l293 328 -86 114 -521 -393c-42,-351 417,-2068 1090,-1597 -1,142 -1238,1221 113,1052 174,-278 13,-280 369,-811 194,-289 -4,-153 -43,-395 -51,-317 34,-1 156,-292l-241 -515 836 -148 392 -48 -926 -1485 -45 34c-652,318 -5396,4964 -5517,5532l-1 0z"/>
  <path class="fil15" d="M17731 18696c1363,907 3396,850 4512,-442 752,-870 1406,-2670 1027,-3521 -181,-405 -25,-1056 -60,-1537 22,-1117 169,-771 30,-2429 -80,192 -23,352 -37,564 -21,317 -77,204 -275,329 -13,657 -124,507 -327,898 -157,303 143,832 -310,892 -477,-309 44,-654 86,-1007 23,-199 -36,-564 5,-724 89,-340 161,-62 418,-246 -372,-242 -210,-907 31,-1258 175,-256 147,-433 246,-643 76,-160 307,-346 235,-495l4 -339c-295,128 -481,344 -837,297 -591,-108 -3273,659 -3857,978l-126 188c264,512 544,583 901,932 33,284 -8,338 70,647 185,728 -370,570 -602,1345 -56,-126 -266,-371 -400,-424 -217,95 -238,281 -328,512 -449,-227 -609,-483 -991,199 -113,-279 -131,-429 -364,-661l-300 450 -234 -201c27,-727 -180,-869 407,-1276l-13 -682c-191,7 -377,175 -549,309l-120 -111 -66 -81c5,115 -29,103 66,81l-43 100c237,-1 120,-48 305,98 -23,206 23,129 -127,265 -205,285 -1455,2486 -1479,2669l-67 221c-479,8 -506,-735 -1091,-838 -219,179 -164,268 -287,362 -166,127 -317,28 -498,207 3,363 599,599 738,821l1191 967c96,124 154,150 323,133 26,-427 -87,-792 379,-719 55,280 -1,525 -45,807 -56,359 33,249 212,497l31 8c186,50 184,113 381,1 62,-297 -57,-271 48,-564 328,-922 -71,-774 -549,-827 9,-45 -9,-331 436,-308 150,8 361,100 512,211 290,212 268,44 551,147 171,62 262,259 401,372 162,131 241,102 432,281l636 862c71,223 79,485 56,725 -295,25 -468,98 -761,220 -11,5 -24,13 -35,18l-382 124c-36,-133 127,48 -23,-56 -16,-11 -144,-4 -173,2l686 651 -1 0zm4037 -1835c-493,-191 -450,-384 -321,-786 652,748 524,-423 562,-495 440,-414 1019,-137 836,501 -69,241 -408,200 -625,282 -362,138 -186,177 -451,498l0 0zm-2800 -2546c400,-387 863,-103 1207,68 399,198 769,497 384,982 -427,187 -312,-214 -875,322 -286,273 -121,123 -457,184 -273,50 -209,160 -416,218 -272,-250 -366,-398 -381,-769l351 -176c5,183 148,211 334,250 655,-343 310,-1348 -147,-1080l0 0z"/>
  <path class="fil15" d="M15105 36615c115,-331 504,-420 516,61 -203,220 -332,146 -516,-61zm-338 -2529c117,728 -381,915 -596,509 -284,-534 74,-793 596,-509zm-3824 -2938c331,-569 262,-214 599,-200 173,7 443,-227 758,-248 683,-46 354,70 633,364 268,283 203,-59 485,491 131,256 135,536 -136,690 -104,59 -297,103 -388,160 -240,152 -31,108 -183,209 -578,383 -680,52 -1168,217 -544,184 -242,-267 -711,484 -66,-28 -684,-833 -704,-924 -59,-266 -1,-429 173,-616 298,-321 159,-148 272,-567l369 -60 0 0zm3559 750c-222,-785 -45,-639 112,-1242 205,-782 142,-510 673,-963 156,-133 124,-252 408,-411 184,-104 453,-123 682,-122 393,1 866,80 1048,501 57,133 346,1188 315,1313 -47,190 -261,326 -453,246 -671,-278 -551,245 -1047,355 -236,53 -318,-104 -686,11 -532,166 -289,501 -1054,313l0 0zm-646 -2342l-8 434 -433 -8 5 -413 435 -13 0 0zm-3492 -74c-148,244 -62,276 -145,522 -523,234 -489,154 -665,-255l-839 112 -326 92 -155 58 155 -58 413 -29c85,268 383,950 262,1131 179,243 128,247 250,479 94,179 217,296 210,528 -27,425 1202,2592 1504,3069 642,1013 1391,1705 2023,2587l281 -13c78,-362 -201,-685 -103,-1067 438,19 2691,1013 3124,1042l152 28c-55,600 -122,180 218,680 154,227 275,457 152,741l507 -915 126 -357c60,-512 -920,-607 -1243,-1226 -548,-1049 -939,-1824 143,-2903 474,-473 271,-315 859,-488 334,-98 467,-450 1039,-207 711,302 515,239 1043,275l62 -1782c-9,-1824 -1897,-3122 -3522,-3135 -758,-6 -2016,296 -2794,463 -871,187 -1874,495 -2731,628l-1 0z"/>
  <path class="fil15" d="M29444 11625c-566,198 -671,-266 -306,-572 92,93 146,179 219,290 123,185 130,115 86,282zm258 -309c-81,-438 -104,-482 2,-936 178,-36 427,-75 572,54 190,168 399,995 -575,882l0 0zm-1258 -950c-211,228 -156,51 -406,220 66,1004 -76,1044 -252,1836 -336,-16 -240,45 -438,80 -307,55 -15,9 -168,-22 -10,-2 -25,-9 -35,-10l-108 -2c-517,75 -886,25 -1145,152l-461 185c-376,143 27,15 -287,273 -126,103 -119,55 -278,214 -41,219 -112,1311 -16,1405 -81,477 58,1085 -21,1369l56 168 54 255 79 315 586 1047 39 -708c152,-170 1143,-846 1354,-412 -26,60 -1428,611 -683,947 454,205 830,-814 989,-986 572,-617 2718,622 2159,1482 -125,89 -553,-17 -794,-4 -497,27 -288,212 -591,283 -93,22 -372,138 -576,154 -507,40 -360,-117 -816,-90 -37,659 179,393 530,712 990,466 3986,-21 4075,-1010l2594 -2450c-466,613 -2549,100 -3117,1381 -15,-20 -493,-495 -564,-526 -335,-147 -452,34 -627,-446 -237,-651 -380,-1019 -406,-1779 -31,-881 1615,-2157 2297,-1831 -282,495 -1954,1108 -1434,1658 767,588 1613,-1250 1961,-1507 446,0 1473,575 1627,895 153,317 -114,113 206,461 545,593 386,847 549,1324l738 -580 708 -603c-253,-562 -1312,-967 -1211,-1570l43 -62 536 -792 53 -61 48 -60 52 -58 56 -110 52 -59 244 -348 -244 348 -52 59 -56 110 -52 58 -48 60 -53 61 -536 792 -43 62c-264,226 -700,-259 -961,-468 -211,-168 -859,-593 -956,-732l438 48 637 120c-178,-151 -403,-139 -637,-120 -270,-169 -555,-33 -859,-291 -92,7 -84,35 -59,-51 -110,41 -105,74 -67,-42 -172,-36 -111,12 -191,-138 -187,-12 -79,64 -180,-93 -173,-13 -147,5 -249,-133 -194,-17 -323,-82 -446,-239l-2877 -1081c-90,90 147,294 239,391 126,133 219,220 331,376 -124,127 -153,132 -330,168l0 1z"/>
  <path class="fil15" d="M17890 22149c-332,-75 -453,-81 -693,151 -180,175 -313,181 -527,345 -266,205 -236,173 -469,413 -149,153 -531,231 -274,529 192,223 1203,71 1352,-264 164,-368 -8,-240 361,-492 283,-194 294,-343 250,-682l0 0z"/>
  <path class="fil15" d="M18212 33346c-325,-31 -739,201 -979,461 -144,156 -873,470 -492,855 144,145 476,78 619,27 294,-104 258,-133 357,-397 115,-309 608,-391 494,-945l0 0z"/>
  <path class="fil15" d="M15126 39492c34,-107 48,-85 -55,-51l-72 -69c0,120 -31,107 72,69 -30,112 -48,94 55,51 87,195 211,149 394,263l75 87 821 528 390 -929 41 -77c-198,-436 -529,16 -847,-67l-161 -484c-277,109 -47,151 -224,437 -92,148 -124,111 -237,321l-253 -79 0 0z"/>
  <path class="fil15" d="M16799 11828c-96,206 192,633 264,652 468,-67 176,-374 430,-720 500,-681 48,-1217 -359,-710 0,1 -5,77 25,177 6,21 38,85 48,112 134,372 -308,275 -407,488l0 0z"/>
  <path class="fil15" d="M15027 30891c222,64 315,56 537,-11 159,-352 -2,-469 258,-681 320,-262 153,-611 -82,-567 -259,48 7,85 -412,548 -224,247 -382,317 -300,711l0 0z"/>
  <path class="fil15" d="M13404 26806c180,-1 307,-10 515,-415 118,-232 222,-427 208,-690l-385 -168c-158,306 -3,397 -214,627 -279,305 -233,231 -123,646l0 0z"/>
  <path class="fil15" d="M9987 24532c152,32 879,-94 599,-905 -118,-2 -791,164 -599,905z"/>
  <path class="fil15" d="M11048 31793c516,79 796,-815 -43,-629 -56,238 -65,417 43,629z"/>
 </g>
</svg>
